<mxfile host="Electron" agent="Mozilla/5.0 (Windows NT 10.0; Win64; x64) AppleWebKit/537.36 (KHTML, like Gecko) draw.io/26.0.16 Chrome/132.0.6834.196 Electron/34.2.0 Safari/537.36" version="26.0.16">
  <diagram id="R2lEEEUBdFMjLlhIrx00" name="Page-1">
    <mxGraphModel dx="1688" dy="965" grid="1" gridSize="10" guides="1" tooltips="1" connect="1" arrows="1" fold="1" page="1" pageScale="1" pageWidth="850" pageHeight="1100" math="0" shadow="0" extFonts="Permanent Marker^https://fonts.googleapis.com/css?family=Permanent+Marker">
      <root>
        <mxCell id="0" />
        <mxCell id="1" parent="0" />
        <mxCell id="Blg-O1EyzSVgvzmrywbV-1" value="USERS" style="rounded=0;whiteSpace=wrap;html=1;" parent="1" vertex="1">
          <mxGeometry x="-235" y="310" width="135" height="60" as="geometry" />
        </mxCell>
        <mxCell id="Blg-O1EyzSVgvzmrywbV-2" value="USER_ID" style="ellipse;whiteSpace=wrap;html=1;" parent="1" vertex="1">
          <mxGeometry x="-530" y="50" width="120" height="80" as="geometry" />
        </mxCell>
        <mxCell id="Blg-O1EyzSVgvzmrywbV-4" value="" style="line;strokeWidth=2;html=1;" parent="1" vertex="1">
          <mxGeometry x="-515" y="100" width="90" height="10" as="geometry" />
        </mxCell>
        <mxCell id="Blg-O1EyzSVgvzmrywbV-6" value="USER_USERNAME" style="ellipse;whiteSpace=wrap;html=1;" parent="1" vertex="1">
          <mxGeometry x="-355" y="60" width="120" height="80" as="geometry" />
        </mxCell>
        <mxCell id="Blg-O1EyzSVgvzmrywbV-8" value="USER_NAMESURNAME" style="ellipse;whiteSpace=wrap;html=1;" parent="1" vertex="1">
          <mxGeometry x="-155" y="30" width="150" height="80" as="geometry" />
        </mxCell>
        <mxCell id="Blg-O1EyzSVgvzmrywbV-10" value="USER_TC_NO" style="ellipse;whiteSpace=wrap;html=1;" parent="1" vertex="1">
          <mxGeometry x="-715" y="275" width="120" height="80" as="geometry" />
        </mxCell>
        <mxCell id="Blg-O1EyzSVgvzmrywbV-12" value="USER_GENDER" style="ellipse;whiteSpace=wrap;html=1;" parent="1" vertex="1">
          <mxGeometry x="-570" y="140" width="120" height="80" as="geometry" />
        </mxCell>
        <mxCell id="Blg-O1EyzSVgvzmrywbV-14" value="USER_EMAIL" style="ellipse;whiteSpace=wrap;html=1;" parent="1" vertex="1">
          <mxGeometry x="5" y="60" width="120" height="80" as="geometry" />
        </mxCell>
        <mxCell id="Blg-O1EyzSVgvzmrywbV-17" value="USER_PASSWORD" style="ellipse;whiteSpace=wrap;html=1;" parent="1" vertex="1">
          <mxGeometry x="-240" y="90" width="120" height="80" as="geometry" />
        </mxCell>
        <mxCell id="Blg-O1EyzSVgvzmrywbV-19" value="USER_BIRTHDATE" style="ellipse;whiteSpace=wrap;html=1;" parent="1" vertex="1">
          <mxGeometry x="-580" y="230" width="120" height="80" as="geometry" />
        </mxCell>
        <mxCell id="Blg-O1EyzSVgvzmrywbV-21" value="USER_CREATEDDATE" style="ellipse;whiteSpace=wrap;html=1;" parent="1" vertex="1">
          <mxGeometry x="-220" y="180" width="140" height="80" as="geometry" />
        </mxCell>
        <mxCell id="Blg-O1EyzSVgvzmrywbV-23" value="USER_PHONE_NO" style="ellipse;whiteSpace=wrap;html=1;" parent="1" vertex="1">
          <mxGeometry x="-5" y="160" width="120" height="80" as="geometry" />
        </mxCell>
        <mxCell id="Blg-O1EyzSVgvzmrywbV-26" value="ADDRESS" style="rounded=0;whiteSpace=wrap;html=1;" parent="1" vertex="1">
          <mxGeometry x="345" y="310" width="120" height="60" as="geometry" />
        </mxCell>
        <mxCell id="Blg-O1EyzSVgvzmrywbV-27" value="ADDRESS_ID" style="ellipse;whiteSpace=wrap;html=1;" parent="1" vertex="1">
          <mxGeometry x="180" y="20" width="120" height="80" as="geometry" />
        </mxCell>
        <mxCell id="Blg-O1EyzSVgvzmrywbV-28" value="USERID" style="ellipse;whiteSpace=wrap;html=1;" parent="1" vertex="1">
          <mxGeometry x="310" y="20" width="120" height="80" as="geometry" />
        </mxCell>
        <mxCell id="Blg-O1EyzSVgvzmrywbV-29" value="COUNTRYID" style="ellipse;whiteSpace=wrap;html=1;" parent="1" vertex="1">
          <mxGeometry x="435" y="65" width="120" height="80" as="geometry" />
        </mxCell>
        <mxCell id="Blg-O1EyzSVgvzmrywbV-32" value="POSTALCODE" style="ellipse;whiteSpace=wrap;html=1;" parent="1" vertex="1">
          <mxGeometry x="135" y="160" width="120" height="80" as="geometry" />
        </mxCell>
        <mxCell id="Blg-O1EyzSVgvzmrywbV-34" value="ADDRESSTEXT" style="ellipse;whiteSpace=wrap;html=1;" parent="1" vertex="1">
          <mxGeometry x="560" y="160" width="120" height="80" as="geometry" />
        </mxCell>
        <mxCell id="Blg-O1EyzSVgvzmrywbV-35" value="" style="line;strokeWidth=2;html=1;" parent="1" vertex="1">
          <mxGeometry x="190" y="75" width="100" height="10" as="geometry" />
        </mxCell>
        <mxCell id="Blg-O1EyzSVgvzmrywbV-36" value="CITIES" style="rounded=0;whiteSpace=wrap;html=1;" parent="1" vertex="1">
          <mxGeometry x="1040" y="620" width="120" height="60" as="geometry" />
        </mxCell>
        <mxCell id="Blg-O1EyzSVgvzmrywbV-37" value="CITYID" style="ellipse;whiteSpace=wrap;html=1;" parent="1" vertex="1">
          <mxGeometry x="1485" y="550" width="120" height="80" as="geometry" />
        </mxCell>
        <mxCell id="Blg-O1EyzSVgvzmrywbV-38" value="COUNTRYID" style="ellipse;whiteSpace=wrap;html=1;" parent="1" vertex="1">
          <mxGeometry x="1347.5" y="482.5" width="120" height="80" as="geometry" />
        </mxCell>
        <mxCell id="Blg-O1EyzSVgvzmrywbV-39" value="CITY" style="ellipse;whiteSpace=wrap;html=1;" parent="1" vertex="1">
          <mxGeometry x="1290" y="385" width="120" height="80" as="geometry" />
        </mxCell>
        <mxCell id="Blg-O1EyzSVgvzmrywbV-40" value="COUNTRIES" style="rounded=0;whiteSpace=wrap;html=1;" parent="1" vertex="1">
          <mxGeometry x="1040" y="265" width="120" height="60" as="geometry" />
        </mxCell>
        <mxCell id="Blg-O1EyzSVgvzmrywbV-41" value="COUNTRYID" style="ellipse;whiteSpace=wrap;html=1;" parent="1" vertex="1">
          <mxGeometry x="1040" y="20" width="120" height="80" as="geometry" />
        </mxCell>
        <mxCell id="Blg-O1EyzSVgvzmrywbV-42" value="COUNTRY" style="ellipse;whiteSpace=wrap;html=1;" parent="1" vertex="1">
          <mxGeometry x="1275" y="120" width="120" height="80" as="geometry" />
        </mxCell>
        <mxCell id="Blg-O1EyzSVgvzmrywbV-43" value="" style="line;strokeWidth=2;html=1;" parent="1" vertex="1">
          <mxGeometry x="1500" y="590" width="90" height="30" as="geometry" />
        </mxCell>
        <mxCell id="Blg-O1EyzSVgvzmrywbV-45" value="DISTRICTS" style="rounded=0;whiteSpace=wrap;html=1;" parent="1" vertex="1">
          <mxGeometry x="1440" y="868" width="120" height="60" as="geometry" />
        </mxCell>
        <mxCell id="Blg-O1EyzSVgvzmrywbV-44" value="" style="line;strokeWidth=2;html=1;" parent="1" vertex="1">
          <mxGeometry x="1050" y="60" width="100" height="40" as="geometry" />
        </mxCell>
        <mxCell id="Blg-O1EyzSVgvzmrywbV-46" value="DISTRICTID" style="ellipse;whiteSpace=wrap;html=1;" parent="1" vertex="1">
          <mxGeometry x="1440" y="690" width="120" height="85" as="geometry" />
        </mxCell>
        <mxCell id="Blg-O1EyzSVgvzmrywbV-47" value="TOWNID" style="ellipse;whiteSpace=wrap;html=1;" parent="1" vertex="1">
          <mxGeometry x="1660" y="838" width="120" height="80" as="geometry" />
        </mxCell>
        <mxCell id="Blg-O1EyzSVgvzmrywbV-48" value="DISTRICT" style="ellipse;whiteSpace=wrap;html=1;" parent="1" vertex="1">
          <mxGeometry x="1440" y="1040" width="120" height="80" as="geometry" />
        </mxCell>
        <mxCell id="dvDT23MqoqcyZpTgtNQX-24" value="" style="edgeStyle=orthogonalEdgeStyle;rounded=0;orthogonalLoop=1;jettySize=auto;html=1;" parent="1" source="Blg-O1EyzSVgvzmrywbV-49" target="n8boVN2LSgLMqEiiDCX4-56" edge="1">
          <mxGeometry relative="1" as="geometry" />
        </mxCell>
        <mxCell id="Blg-O1EyzSVgvzmrywbV-49" value="TOWNS" style="rounded=0;whiteSpace=wrap;html=1;" parent="1" vertex="1">
          <mxGeometry x="1040" y="858" width="120" height="60" as="geometry" />
        </mxCell>
        <mxCell id="Blg-O1EyzSVgvzmrywbV-50" value="TOWNID" style="ellipse;whiteSpace=wrap;html=1;" parent="1" vertex="1">
          <mxGeometry x="820" y="923" width="120" height="80" as="geometry" />
        </mxCell>
        <mxCell id="Blg-O1EyzSVgvzmrywbV-51" value="CITYID" style="ellipse;whiteSpace=wrap;html=1;" parent="1" vertex="1">
          <mxGeometry x="1040" y="990" width="120" height="80" as="geometry" />
        </mxCell>
        <mxCell id="Blg-O1EyzSVgvzmrywbV-52" value="TOWN" style="ellipse;whiteSpace=wrap;html=1;" parent="1" vertex="1">
          <mxGeometry x="805" y="815" width="120" height="80" as="geometry" />
        </mxCell>
        <mxCell id="Blg-O1EyzSVgvzmrywbV-53" value="" style="line;strokeWidth=2;html=1;" parent="1" vertex="1">
          <mxGeometry x="1452.5" y="745" width="95" height="20" as="geometry" />
        </mxCell>
        <mxCell id="Blg-O1EyzSVgvzmrywbV-54" value="" style="line;strokeWidth=2;html=1;" parent="1" vertex="1">
          <mxGeometry x="835" y="978" width="90" height="10" as="geometry" />
        </mxCell>
        <mxCell id="Blg-O1EyzSVgvzmrywbV-55" value="ORDERS" style="rounded=0;whiteSpace=wrap;html=1;" parent="1" vertex="1">
          <mxGeometry x="-270" y="685" width="120" height="60" as="geometry" />
        </mxCell>
        <mxCell id="Blg-O1EyzSVgvzmrywbV-56" value="ORDER_ID" style="ellipse;whiteSpace=wrap;html=1;" parent="1" vertex="1">
          <mxGeometry x="-190" y="825" width="120" height="80" as="geometry" />
        </mxCell>
        <mxCell id="Blg-O1EyzSVgvzmrywbV-57" value="USERID" style="ellipse;whiteSpace=wrap;html=1;" parent="1" vertex="1">
          <mxGeometry x="-635" y="750" width="120" height="80" as="geometry" />
        </mxCell>
        <mxCell id="Blg-O1EyzSVgvzmrywbV-58" value="DATE_" style="ellipse;whiteSpace=wrap;html=1;" parent="1" vertex="1">
          <mxGeometry x="-460" y="658" width="120" height="80" as="geometry" />
        </mxCell>
        <mxCell id="Blg-O1EyzSVgvzmrywbV-59" value="TOTALPROCE" style="ellipse;whiteSpace=wrap;html=1;" parent="1" vertex="1">
          <mxGeometry x="-570" y="830" width="120" height="80" as="geometry" />
        </mxCell>
        <mxCell id="Blg-O1EyzSVgvzmrywbV-60" value="ADDRESSID" style="ellipse;whiteSpace=wrap;html=1;" parent="1" vertex="1">
          <mxGeometry x="-140" y="590" width="120" height="80" as="geometry" />
        </mxCell>
        <mxCell id="Blg-O1EyzSVgvzmrywbV-61" value="STATUS_" style="ellipse;whiteSpace=wrap;html=1;" parent="1" vertex="1">
          <mxGeometry x="-65" y="775" width="120" height="80" as="geometry" />
        </mxCell>
        <mxCell id="Blg-O1EyzSVgvzmrywbV-62" value="ORDERDETAILS" style="rounded=0;whiteSpace=wrap;html=1;" parent="1" vertex="1">
          <mxGeometry x="-345" y="985" width="120" height="60" as="geometry" />
        </mxCell>
        <mxCell id="Blg-O1EyzSVgvzmrywbV-63" value="ORDERDETAILS_ID" style="ellipse;whiteSpace=wrap;html=1;" parent="1" vertex="1">
          <mxGeometry x="-635" y="1070" width="120" height="80" as="geometry" />
        </mxCell>
        <mxCell id="Blg-O1EyzSVgvzmrywbV-64" value="ORDERID" style="ellipse;whiteSpace=wrap;html=1;" parent="1" vertex="1">
          <mxGeometry x="-755" y="995.25" width="120" height="80" as="geometry" />
        </mxCell>
        <mxCell id="Blg-O1EyzSVgvzmrywbV-65" value="AMOUNT" style="ellipse;whiteSpace=wrap;html=1;" parent="1" vertex="1">
          <mxGeometry x="-330" y="1220" width="120" height="80" as="geometry" />
        </mxCell>
        <mxCell id="Blg-O1EyzSVgvzmrywbV-66" value="UNITPRICE" style="ellipse;whiteSpace=wrap;html=1;" parent="1" vertex="1">
          <mxGeometry x="-525" y="1270" width="120" height="80" as="geometry" />
        </mxCell>
        <mxCell id="Blg-O1EyzSVgvzmrywbV-67" value="ITEMID" style="ellipse;whiteSpace=wrap;html=1;" parent="1" vertex="1">
          <mxGeometry x="-710" y="905" width="120" height="80" as="geometry" />
        </mxCell>
        <mxCell id="Blg-O1EyzSVgvzmrywbV-68" value="LINETOTAL" style="ellipse;whiteSpace=wrap;html=1;" parent="1" vertex="1">
          <mxGeometry x="-555" y="1150" width="120" height="80" as="geometry" />
        </mxCell>
        <mxCell id="Blg-O1EyzSVgvzmrywbV-69" value="ITEMS" style="rounded=0;whiteSpace=wrap;html=1;" parent="1" vertex="1">
          <mxGeometry x="110" y="1478" width="120" height="60" as="geometry" />
        </mxCell>
        <mxCell id="Blg-O1EyzSVgvzmrywbV-70" value="ITEMNAME" style="ellipse;whiteSpace=wrap;html=1;" parent="1" vertex="1">
          <mxGeometry x="-200" y="1600" width="130" height="80" as="geometry" />
        </mxCell>
        <mxCell id="Blg-O1EyzSVgvzmrywbV-72" value="UNITPRICE" style="ellipse;whiteSpace=wrap;html=1;" parent="1" vertex="1">
          <mxGeometry x="337.5" y="1300" width="120" height="80" as="geometry" />
        </mxCell>
        <mxCell id="Blg-O1EyzSVgvzmrywbV-73" value="CATEGORYID" style="ellipse;whiteSpace=wrap;html=1;" parent="1" vertex="1">
          <mxGeometry x="465" y="1350" width="120" height="80" as="geometry" />
        </mxCell>
        <mxCell id="Blg-O1EyzSVgvzmrywbV-74" value="ITEMCODE" style="ellipse;whiteSpace=wrap;html=1;" parent="1" vertex="1">
          <mxGeometry x="-205" y="1380" width="120" height="80" as="geometry" />
        </mxCell>
        <mxCell id="Blg-O1EyzSVgvzmrywbV-75" value="ITEMID" style="ellipse;whiteSpace=wrap;html=1;" parent="1" vertex="1">
          <mxGeometry x="-250" y="1470" width="120" height="80" as="geometry" />
        </mxCell>
        <mxCell id="Blg-O1EyzSVgvzmrywbV-78" value="BRAND" style="ellipse;whiteSpace=wrap;html=1;" parent="1" vertex="1">
          <mxGeometry x="375" y="1590" width="120" height="80" as="geometry" />
        </mxCell>
        <mxCell id="Blg-O1EyzSVgvzmrywbV-79" value="CATEGORY" style="rounded=0;whiteSpace=wrap;html=1;" parent="1" vertex="1">
          <mxGeometry x="630" y="1470" width="120" height="60" as="geometry" />
        </mxCell>
        <mxCell id="Blg-O1EyzSVgvzmrywbV-80" value="CATEGORYID" style="ellipse;whiteSpace=wrap;html=1;" parent="1" vertex="1">
          <mxGeometry x="590" y="1720" width="120" height="80" as="geometry" />
        </mxCell>
        <mxCell id="Blg-O1EyzSVgvzmrywbV-81" value="CATEGORYNAME" style="ellipse;whiteSpace=wrap;html=1;" parent="1" vertex="1">
          <mxGeometry x="820" y="1490" width="120" height="80" as="geometry" />
        </mxCell>
        <mxCell id="Blg-O1EyzSVgvzmrywbV-82" value="ITEMSIMAGE" style="rounded=0;whiteSpace=wrap;html=1;" parent="1" vertex="1">
          <mxGeometry x="115" y="1768" width="120" height="60" as="geometry" />
        </mxCell>
        <mxCell id="Blg-O1EyzSVgvzmrywbV-83" value="IMAGE_ID" style="ellipse;whiteSpace=wrap;html=1;" parent="1" vertex="1">
          <mxGeometry x="-140" y="1830" width="120" height="80" as="geometry" />
        </mxCell>
        <mxCell id="Blg-O1EyzSVgvzmrywbV-84" value="IMAGEURL" style="ellipse;whiteSpace=wrap;html=1;" parent="1" vertex="1">
          <mxGeometry x="-170" y="1730" width="120" height="80" as="geometry" />
        </mxCell>
        <mxCell id="Blg-O1EyzSVgvzmrywbV-85" value="ITEMID" style="ellipse;whiteSpace=wrap;html=1;" parent="1" vertex="1">
          <mxGeometry x="115" y="1910" width="120" height="80" as="geometry" />
        </mxCell>
        <mxCell id="Blg-O1EyzSVgvzmrywbV-86" value="INVOICES" style="rounded=0;whiteSpace=wrap;html=1;" parent="1" vertex="1">
          <mxGeometry x="315" y="738" width="120" height="60" as="geometry" />
        </mxCell>
        <mxCell id="Blg-O1EyzSVgvzmrywbV-87" value="INVOICEID" style="ellipse;whiteSpace=wrap;html=1;" parent="1" vertex="1">
          <mxGeometry x="20" y="870" width="120" height="80" as="geometry" />
        </mxCell>
        <mxCell id="Blg-O1EyzSVgvzmrywbV-88" value="ORDERID" style="ellipse;whiteSpace=wrap;html=1;" parent="1" vertex="1">
          <mxGeometry x="520" y="720" width="120" height="80" as="geometry" />
        </mxCell>
        <mxCell id="Blg-O1EyzSVgvzmrywbV-89" value="ADDRESSID" style="ellipse;whiteSpace=wrap;html=1;" parent="1" vertex="1">
          <mxGeometry x="470" y="825" width="120" height="80" as="geometry" />
        </mxCell>
        <mxCell id="Blg-O1EyzSVgvzmrywbV-90" value="DATE_" style="ellipse;whiteSpace=wrap;html=1;" parent="1" vertex="1">
          <mxGeometry x="100" y="492.5" width="120" height="80" as="geometry" />
        </mxCell>
        <mxCell id="Blg-O1EyzSVgvzmrywbV-91" value="CARGOFICHENO" style="ellipse;whiteSpace=wrap;html=1;" parent="1" vertex="1">
          <mxGeometry x="20" y="575" width="120" height="80" as="geometry" />
        </mxCell>
        <mxCell id="Blg-O1EyzSVgvzmrywbV-92" value="TOTALPRICE" style="ellipse;whiteSpace=wrap;html=1;" parent="1" vertex="1">
          <mxGeometry x="345" y="860" width="120" height="80" as="geometry" />
        </mxCell>
        <mxCell id="Blg-O1EyzSVgvzmrywbV-93" value="INVOICEDETAILS" style="rounded=0;whiteSpace=wrap;html=1;" parent="1" vertex="1">
          <mxGeometry x="165" y="1170" width="120" height="60" as="geometry" />
        </mxCell>
        <mxCell id="Blg-O1EyzSVgvzmrywbV-94" value="INVOICEDETAILID" style="ellipse;whiteSpace=wrap;html=1;" parent="1" vertex="1">
          <mxGeometry x="365" y="950" width="120" height="80" as="geometry" />
        </mxCell>
        <mxCell id="Blg-O1EyzSVgvzmrywbV-95" value="INVOICEID" style="ellipse;whiteSpace=wrap;html=1;" parent="1" vertex="1">
          <mxGeometry x="5" y="1203" width="120" height="80" as="geometry" />
        </mxCell>
        <mxCell id="Blg-O1EyzSVgvzmrywbV-96" value="ORDERDETAILID" style="ellipse;whiteSpace=wrap;html=1;" parent="1" vertex="1">
          <mxGeometry x="-5" y="980" width="120" height="80" as="geometry" />
        </mxCell>
        <mxCell id="Blg-O1EyzSVgvzmrywbV-97" value="ITEMID" style="ellipse;whiteSpace=wrap;html=1;" parent="1" vertex="1">
          <mxGeometry x="465" y="1210" width="115" height="80" as="geometry" />
        </mxCell>
        <mxCell id="Blg-O1EyzSVgvzmrywbV-98" value="AMOUNT" style="ellipse;whiteSpace=wrap;html=1;" parent="1" vertex="1">
          <mxGeometry x="395" y="1030" width="120" height="80" as="geometry" />
        </mxCell>
        <mxCell id="Blg-O1EyzSVgvzmrywbV-99" value="UNITPRICE" style="ellipse;whiteSpace=wrap;html=1;" parent="1" vertex="1">
          <mxGeometry x="415" y="1110" width="120" height="80" as="geometry" />
        </mxCell>
        <mxCell id="Blg-O1EyzSVgvzmrywbV-101" value="LINETOTAL" style="ellipse;whiteSpace=wrap;html=1;" parent="1" vertex="1">
          <mxGeometry x="-70" y="1130" width="120" height="80" as="geometry" />
        </mxCell>
        <mxCell id="Blg-O1EyzSVgvzmrywbV-103" value="PAYMENTS" style="rounded=0;whiteSpace=wrap;html=1;rotation=0;" parent="1" vertex="1">
          <mxGeometry x="-560" y="502.5" width="120" height="60" as="geometry" />
        </mxCell>
        <mxCell id="Blg-O1EyzSVgvzmrywbV-104" value="PAYMENTID" style="ellipse;whiteSpace=wrap;html=1;" parent="1" vertex="1">
          <mxGeometry x="-675" y="370" width="120" height="80" as="geometry" />
        </mxCell>
        <mxCell id="Blg-O1EyzSVgvzmrywbV-105" value="ORDERID" style="ellipse;whiteSpace=wrap;html=1;" parent="1" vertex="1">
          <mxGeometry x="-540" y="353" width="120" height="80" as="geometry" />
        </mxCell>
        <mxCell id="Blg-O1EyzSVgvzmrywbV-106" value="PAYMENTTYPE" style="ellipse;whiteSpace=wrap;html=1;" parent="1" vertex="1">
          <mxGeometry x="-795" y="530" width="120" height="80" as="geometry" />
        </mxCell>
        <mxCell id="Blg-O1EyzSVgvzmrywbV-107" value="DATE_" style="ellipse;whiteSpace=wrap;html=1;" parent="1" vertex="1">
          <mxGeometry x="-600" y="635" width="120" height="80" as="geometry" />
        </mxCell>
        <mxCell id="Blg-O1EyzSVgvzmrywbV-108" value="IS_OK" style="ellipse;whiteSpace=wrap;html=1;" parent="1" vertex="1">
          <mxGeometry x="-790" y="428" width="120" height="80" as="geometry" />
        </mxCell>
        <mxCell id="Blg-O1EyzSVgvzmrywbV-109" value="APPROVECODE" style="ellipse;whiteSpace=wrap;html=1;" parent="1" vertex="1">
          <mxGeometry x="-490" y="572.5" width="120" height="80" as="geometry" />
        </mxCell>
        <mxCell id="Blg-O1EyzSVgvzmrywbV-110" value="PAYMENTTOTAL" style="ellipse;whiteSpace=wrap;html=1;" parent="1" vertex="1">
          <mxGeometry x="-730" y="628" width="120" height="80" as="geometry" />
        </mxCell>
        <mxCell id="Blg-O1EyzSVgvzmrywbV-111" value="SHIPMENTS" style="rounded=0;whiteSpace=wrap;html=1;" parent="1" vertex="1">
          <mxGeometry x="495" y="502.5" width="120" height="60" as="geometry" />
        </mxCell>
        <mxCell id="Blg-O1EyzSVgvzmrywbV-115" value="ADDRESSID" style="ellipse;whiteSpace=wrap;html=1;" parent="1" vertex="1">
          <mxGeometry x="670" y="625" width="120" height="80" as="geometry" />
        </mxCell>
        <mxCell id="Blg-O1EyzSVgvzmrywbV-116" value="SHIPMENT_FICHENO" style="ellipse;whiteSpace=wrap;html=1;" parent="1" vertex="1">
          <mxGeometry x="800" y="460" width="140" height="80" as="geometry" />
        </mxCell>
        <mxCell id="Blg-O1EyzSVgvzmrywbV-117" value="" style="line;strokeWidth=2;html=1;" parent="1" vertex="1">
          <mxGeometry x="-660" y="423" width="100" height="15" as="geometry" />
        </mxCell>
        <mxCell id="Blg-O1EyzSVgvzmrywbV-118" value="" style="line;strokeWidth=2;html=1;" parent="1" vertex="1">
          <mxGeometry x="385" y="995.25" width="80" height="20.5" as="geometry" />
        </mxCell>
        <mxCell id="Blg-O1EyzSVgvzmrywbV-119" value="" style="line;strokeWidth=2;html=1;" parent="1" vertex="1">
          <mxGeometry x="-620" y="1120" width="90" height="10" as="geometry" />
        </mxCell>
        <mxCell id="Blg-O1EyzSVgvzmrywbV-120" value="" style="line;strokeWidth=2;html=1;" parent="1" vertex="1">
          <mxGeometry x="-230" y="1518" width="85" height="20" as="geometry" />
        </mxCell>
        <mxCell id="Blg-O1EyzSVgvzmrywbV-121" value="" style="line;strokeWidth=2;html=1;" parent="1" vertex="1">
          <mxGeometry x="612.5" y="1750" width="75" height="60" as="geometry" />
        </mxCell>
        <mxCell id="Blg-O1EyzSVgvzmrywbV-122" value="" style="line;strokeWidth=2;html=1;" parent="1" vertex="1">
          <mxGeometry x="-120" y="1880" width="90" height="10" as="geometry" />
        </mxCell>
        <mxCell id="Blg-O1EyzSVgvzmrywbV-123" value="" style="line;strokeWidth=2;html=1;" parent="1" vertex="1">
          <mxGeometry x="45" y="928" width="80" height="10" as="geometry" />
        </mxCell>
        <mxCell id="Blg-O1EyzSVgvzmrywbV-125" value="" style="line;strokeWidth=2;html=1;" parent="1" vertex="1">
          <mxGeometry x="-175" y="878" width="90" height="10" as="geometry" />
        </mxCell>
        <mxCell id="n8boVN2LSgLMqEiiDCX4-1" value="MEVCUTTUR" style="strokeWidth=2;html=1;shape=mxgraph.flowchart.decision;whiteSpace=wrap;" parent="1" vertex="1">
          <mxGeometry x="20" y="275" width="150" height="120" as="geometry" />
        </mxCell>
        <mxCell id="n8boVN2LSgLMqEiiDCX4-4" value="" style="endArrow=none;html=1;rounded=0;entryX=0;entryY=0.75;entryDx=0;entryDy=0;exitX=1;exitY=0.5;exitDx=0;exitDy=0;exitPerimeter=0;" parent="1" source="n8boVN2LSgLMqEiiDCX4-1" target="Blg-O1EyzSVgvzmrywbV-26" edge="1">
          <mxGeometry relative="1" as="geometry">
            <mxPoint x="220" y="299.47" as="sourcePoint" />
            <mxPoint x="460" y="260" as="targetPoint" />
          </mxGeometry>
        </mxCell>
        <mxCell id="n8boVN2LSgLMqEiiDCX4-6" value="" style="endArrow=none;html=1;rounded=0;exitX=-0.002;exitY=0.207;exitDx=0;exitDy=0;exitPerimeter=0;entryX=0;entryY=0.5;entryDx=0;entryDy=0;entryPerimeter=0;" parent="1" source="n8boVN2LSgLMqEiiDCX4-7" target="n8boVN2LSgLMqEiiDCX4-1" edge="1">
          <mxGeometry relative="1" as="geometry">
            <mxPoint x="-90" y="300" as="sourcePoint" />
            <mxPoint x="70" y="300" as="targetPoint" />
          </mxGeometry>
        </mxCell>
        <mxCell id="n8boVN2LSgLMqEiiDCX4-7" value="1" style="text;html=1;align=center;verticalAlign=middle;resizable=0;points=[];autosize=1;strokeColor=none;fillColor=none;" parent="1" vertex="1">
          <mxGeometry x="-100" y="325" width="30" height="30" as="geometry" />
        </mxCell>
        <mxCell id="n8boVN2LSgLMqEiiDCX4-9" value="" style="endArrow=none;html=1;rounded=0;entryX=0.5;entryY=1;entryDx=0;entryDy=0;exitX=0.569;exitY=0.01;exitDx=0;exitDy=0;exitPerimeter=0;" parent="1" source="Blg-O1EyzSVgvzmrywbV-1" target="Blg-O1EyzSVgvzmrywbV-21" edge="1">
          <mxGeometry relative="1" as="geometry">
            <mxPoint x="-170" y="300" as="sourcePoint" />
            <mxPoint x="-10" y="300" as="targetPoint" />
          </mxGeometry>
        </mxCell>
        <mxCell id="n8boVN2LSgLMqEiiDCX4-11" value="" style="endArrow=none;html=1;rounded=0;entryX=0.943;entryY=-0.01;entryDx=0;entryDy=0;entryPerimeter=0;exitX=0.588;exitY=0.967;exitDx=0;exitDy=0;exitPerimeter=0;" parent="1" source="Blg-O1EyzSVgvzmrywbV-8" target="Blg-O1EyzSVgvzmrywbV-1" edge="1">
          <mxGeometry relative="1" as="geometry">
            <mxPoint x="-70" y="120" as="sourcePoint" />
            <mxPoint x="90" y="120" as="targetPoint" />
            <Array as="points">
              <mxPoint x="-40" y="200" />
            </Array>
          </mxGeometry>
        </mxCell>
        <mxCell id="n8boVN2LSgLMqEiiDCX4-12" value="" style="endArrow=none;html=1;rounded=0;exitX=0.647;exitY=1.003;exitDx=0;exitDy=0;exitPerimeter=0;entryX=0.459;entryY=0.019;entryDx=0;entryDy=0;entryPerimeter=0;" parent="1" source="Blg-O1EyzSVgvzmrywbV-6" target="Blg-O1EyzSVgvzmrywbV-1" edge="1">
          <mxGeometry relative="1" as="geometry">
            <mxPoint x="-340" y="170" as="sourcePoint" />
            <mxPoint x="-180" y="170" as="targetPoint" />
          </mxGeometry>
        </mxCell>
        <mxCell id="n8boVN2LSgLMqEiiDCX4-13" value="" style="endArrow=none;html=1;rounded=0;exitX=1;exitY=1;exitDx=0;exitDy=0;entryX=0.25;entryY=0;entryDx=0;entryDy=0;" parent="1" source="Blg-O1EyzSVgvzmrywbV-2" target="Blg-O1EyzSVgvzmrywbV-1" edge="1">
          <mxGeometry relative="1" as="geometry">
            <mxPoint x="-380" y="180" as="sourcePoint" />
            <mxPoint x="-220" y="180" as="targetPoint" />
          </mxGeometry>
        </mxCell>
        <mxCell id="n8boVN2LSgLMqEiiDCX4-14" value="" style="endArrow=none;html=1;rounded=0;entryX=0;entryY=0;entryDx=0;entryDy=0;exitX=0.966;exitY=0.652;exitDx=0;exitDy=0;exitPerimeter=0;" parent="1" source="Blg-O1EyzSVgvzmrywbV-12" target="Blg-O1EyzSVgvzmrywbV-1" edge="1">
          <mxGeometry relative="1" as="geometry">
            <mxPoint x="-330" y="250" as="sourcePoint" />
            <mxPoint x="-170" y="250" as="targetPoint" />
          </mxGeometry>
        </mxCell>
        <mxCell id="n8boVN2LSgLMqEiiDCX4-15" value="" style="endArrow=none;html=1;rounded=0;entryX=0;entryY=0.5;entryDx=0;entryDy=0;exitX=1.017;exitY=0.594;exitDx=0;exitDy=0;exitPerimeter=0;" parent="1" source="Blg-O1EyzSVgvzmrywbV-19" target="Blg-O1EyzSVgvzmrywbV-1" edge="1">
          <mxGeometry relative="1" as="geometry">
            <mxPoint x="-305" y="330" as="sourcePoint" />
            <mxPoint x="-145" y="330" as="targetPoint" />
          </mxGeometry>
        </mxCell>
        <mxCell id="n8boVN2LSgLMqEiiDCX4-16" value="" style="endArrow=none;html=1;rounded=0;entryX=0;entryY=1;entryDx=0;entryDy=0;exitX=1;exitY=0.5;exitDx=0;exitDy=0;" parent="1" source="Blg-O1EyzSVgvzmrywbV-10" target="Blg-O1EyzSVgvzmrywbV-1" edge="1">
          <mxGeometry relative="1" as="geometry">
            <mxPoint x="-300" y="420" as="sourcePoint" />
            <mxPoint x="-130" y="420" as="targetPoint" />
          </mxGeometry>
        </mxCell>
        <mxCell id="n8boVN2LSgLMqEiiDCX4-17" value="" style="endArrow=none;html=1;rounded=0;entryX=0;entryY=1;entryDx=0;entryDy=0;exitX=1.003;exitY=0.07;exitDx=0;exitDy=0;exitPerimeter=0;" parent="1" source="Blg-O1EyzSVgvzmrywbV-1" target="Blg-O1EyzSVgvzmrywbV-14" edge="1">
          <mxGeometry relative="1" as="geometry">
            <mxPoint x="-100" y="310" as="sourcePoint" />
            <mxPoint x="60" y="310" as="targetPoint" />
          </mxGeometry>
        </mxCell>
        <mxCell id="n8boVN2LSgLMqEiiDCX4-18" value="" style="endArrow=none;html=1;rounded=0;entryX=0.188;entryY=0.924;entryDx=0;entryDy=0;entryPerimeter=0;exitX=1.001;exitY=0.185;exitDx=0;exitDy=0;exitPerimeter=0;" parent="1" source="Blg-O1EyzSVgvzmrywbV-1" target="Blg-O1EyzSVgvzmrywbV-23" edge="1">
          <mxGeometry relative="1" as="geometry">
            <mxPoint x="-100" y="320" as="sourcePoint" />
            <mxPoint x="60" y="320" as="targetPoint" />
          </mxGeometry>
        </mxCell>
        <mxCell id="n8boVN2LSgLMqEiiDCX4-19" value="" style="endArrow=none;html=1;rounded=0;entryX=0;entryY=0;entryDx=0;entryDy=0;exitX=1;exitY=1;exitDx=0;exitDy=0;" parent="1" source="Blg-O1EyzSVgvzmrywbV-32" target="Blg-O1EyzSVgvzmrywbV-26" edge="1">
          <mxGeometry relative="1" as="geometry">
            <mxPoint x="230" y="309.47" as="sourcePoint" />
            <mxPoint x="410" y="320" as="targetPoint" />
          </mxGeometry>
        </mxCell>
        <mxCell id="n8boVN2LSgLMqEiiDCX4-20" value="" style="endArrow=none;html=1;rounded=0;entryX=0;entryY=0;entryDx=0;entryDy=0;" parent="1" source="Blg-O1EyzSVgvzmrywbV-27" target="Blg-O1EyzSVgvzmrywbV-26" edge="1">
          <mxGeometry relative="1" as="geometry">
            <mxPoint x="240" y="319.47" as="sourcePoint" />
            <mxPoint x="420" y="330" as="targetPoint" />
          </mxGeometry>
        </mxCell>
        <mxCell id="n8boVN2LSgLMqEiiDCX4-21" value="" style="endArrow=none;html=1;rounded=0;entryX=0.137;entryY=-0.013;entryDx=0;entryDy=0;entryPerimeter=0;exitX=0.5;exitY=1;exitDx=0;exitDy=0;" parent="1" source="Blg-O1EyzSVgvzmrywbV-28" target="Blg-O1EyzSVgvzmrywbV-26" edge="1">
          <mxGeometry relative="1" as="geometry">
            <mxPoint x="350" y="90" as="sourcePoint" />
            <mxPoint x="430" y="340" as="targetPoint" />
            <Array as="points" />
          </mxGeometry>
        </mxCell>
        <mxCell id="n8boVN2LSgLMqEiiDCX4-23" value="" style="endArrow=none;html=1;rounded=0;entryX=0.75;entryY=0;entryDx=0;entryDy=0;exitX=0.29;exitY=0.98;exitDx=0;exitDy=0;exitPerimeter=0;" parent="1" source="Blg-O1EyzSVgvzmrywbV-29" target="Blg-O1EyzSVgvzmrywbV-26" edge="1">
          <mxGeometry relative="1" as="geometry">
            <mxPoint x="270" y="349.47" as="sourcePoint" />
            <mxPoint x="450" y="360" as="targetPoint" />
          </mxGeometry>
        </mxCell>
        <mxCell id="n8boVN2LSgLMqEiiDCX4-25" value="" style="endArrow=none;html=1;rounded=0;entryX=1;entryY=0.25;entryDx=0;entryDy=0;exitX=-0.008;exitY=0.651;exitDx=0;exitDy=0;exitPerimeter=0;" parent="1" source="Blg-O1EyzSVgvzmrywbV-34" target="Blg-O1EyzSVgvzmrywbV-26" edge="1">
          <mxGeometry relative="1" as="geometry">
            <mxPoint x="290" y="369.47" as="sourcePoint" />
            <mxPoint x="470" y="380" as="targetPoint" />
          </mxGeometry>
        </mxCell>
        <mxCell id="n8boVN2LSgLMqEiiDCX4-27" value="" style="endArrow=none;html=1;rounded=0;exitX=0.744;exitY=0.925;exitDx=0;exitDy=0;exitPerimeter=0;entryX=0.855;entryY=-0.002;entryDx=0;entryDy=0;entryPerimeter=0;" parent="1" source="Blg-O1EyzSVgvzmrywbV-17" target="Blg-O1EyzSVgvzmrywbV-1" edge="1">
          <mxGeometry relative="1" as="geometry">
            <mxPoint x="-190" y="500" as="sourcePoint" />
            <mxPoint x="-30" y="500" as="targetPoint" />
            <Array as="points">
              <mxPoint x="-60" y="200" />
            </Array>
          </mxGeometry>
        </mxCell>
        <mxCell id="n8boVN2LSgLMqEiiDCX4-29" value="" style="endArrow=none;html=1;rounded=0;exitX=1;exitY=0.75;exitDx=0;exitDy=0;entryX=0;entryY=0.5;entryDx=0;entryDy=0;" parent="1" source="Blg-O1EyzSVgvzmrywbV-26" target="n8boVN2LSgLMqEiiDCX4-34" edge="1">
          <mxGeometry relative="1" as="geometry">
            <mxPoint x="450" y="380" as="sourcePoint" />
            <mxPoint x="540.0000000000002" y="440" as="targetPoint" />
          </mxGeometry>
        </mxCell>
        <mxCell id="n8boVN2LSgLMqEiiDCX4-32" value="" style="endArrow=none;html=1;rounded=0;exitX=1;exitY=0.5;exitDx=0;exitDy=0;entryX=0.002;entryY=0.563;entryDx=0;entryDy=0;entryPerimeter=0;" parent="1" source="n8boVN2LSgLMqEiiDCX4-34" target="Blg-O1EyzSVgvzmrywbV-40" edge="1">
          <mxGeometry relative="1" as="geometry">
            <mxPoint x="640" y="440" as="sourcePoint" />
            <mxPoint x="790" y="520" as="targetPoint" />
          </mxGeometry>
        </mxCell>
        <mxCell id="n8boVN2LSgLMqEiiDCX4-33" value="" style="endArrow=none;html=1;rounded=0;entryX=0.537;entryY=-0.008;entryDx=0;entryDy=0;entryPerimeter=0;exitX=0.5;exitY=1;exitDx=0;exitDy=0;" parent="1" source="Blg-O1EyzSVgvzmrywbV-41" target="Blg-O1EyzSVgvzmrywbV-40" edge="1">
          <mxGeometry relative="1" as="geometry">
            <mxPoint x="846" y="406" as="sourcePoint" />
            <mxPoint x="980" y="440" as="targetPoint" />
          </mxGeometry>
        </mxCell>
        <mxCell id="n8boVN2LSgLMqEiiDCX4-34" value="MEVCUTTUR" style="shape=rhombus;perimeter=rhombusPerimeter;whiteSpace=wrap;html=1;align=center;rotation=0;" parent="1" vertex="1">
          <mxGeometry x="605" y="280" width="120" height="60" as="geometry" />
        </mxCell>
        <mxCell id="n8boVN2LSgLMqEiiDCX4-35" value="" style="endArrow=none;html=1;rounded=0;exitX=1.016;exitY=0.361;exitDx=0;exitDy=0;exitPerimeter=0;entryX=0;entryY=1;entryDx=0;entryDy=0;" parent="1" source="Blg-O1EyzSVgvzmrywbV-40" target="Blg-O1EyzSVgvzmrywbV-42" edge="1">
          <mxGeometry relative="1" as="geometry">
            <mxPoint x="870" y="460" as="sourcePoint" />
            <mxPoint x="1030" y="460" as="targetPoint" />
          </mxGeometry>
        </mxCell>
        <mxCell id="n8boVN2LSgLMqEiiDCX4-37" value="MEVCUTTUR" style="shape=rhombus;perimeter=rhombusPerimeter;whiteSpace=wrap;html=1;align=center;" parent="1" vertex="1">
          <mxGeometry x="1040" y="428" width="120" height="60" as="geometry" />
        </mxCell>
        <mxCell id="n8boVN2LSgLMqEiiDCX4-39" value="" style="endArrow=none;html=1;rounded=0;exitX=0.5;exitY=1;exitDx=0;exitDy=0;entryX=0.5;entryY=0;entryDx=0;entryDy=0;" parent="1" source="Blg-O1EyzSVgvzmrywbV-40" target="n8boVN2LSgLMqEiiDCX4-37" edge="1">
          <mxGeometry relative="1" as="geometry">
            <mxPoint x="750" y="550" as="sourcePoint" />
            <mxPoint x="910" y="550" as="targetPoint" />
          </mxGeometry>
        </mxCell>
        <mxCell id="n8boVN2LSgLMqEiiDCX4-40" value="" style="endArrow=none;html=1;rounded=0;exitX=0.5;exitY=1;exitDx=0;exitDy=0;entryX=0.5;entryY=0;entryDx=0;entryDy=0;" parent="1" source="n8boVN2LSgLMqEiiDCX4-37" target="Blg-O1EyzSVgvzmrywbV-36" edge="1">
          <mxGeometry relative="1" as="geometry">
            <mxPoint x="700" y="630" as="sourcePoint" />
            <mxPoint x="860" y="630" as="targetPoint" />
          </mxGeometry>
        </mxCell>
        <mxCell id="n8boVN2LSgLMqEiiDCX4-43" value="" style="endArrow=none;html=1;rounded=0;exitX=1;exitY=0.5;exitDx=0;exitDy=0;entryX=0;entryY=0.5;entryDx=0;entryDy=0;" parent="1" source="Blg-O1EyzSVgvzmrywbV-36" target="Blg-O1EyzSVgvzmrywbV-37" edge="1">
          <mxGeometry relative="1" as="geometry">
            <mxPoint x="750" y="780" as="sourcePoint" />
            <mxPoint x="867" y="720" as="targetPoint" />
          </mxGeometry>
        </mxCell>
        <mxCell id="n8boVN2LSgLMqEiiDCX4-44" value="" style="endArrow=none;html=1;rounded=0;exitX=0;exitY=1;exitDx=0;exitDy=0;entryX=1;entryY=0.25;entryDx=0;entryDy=0;" parent="1" source="Blg-O1EyzSVgvzmrywbV-38" target="Blg-O1EyzSVgvzmrywbV-36" edge="1">
          <mxGeometry relative="1" as="geometry">
            <mxPoint x="710" y="790" as="sourcePoint" />
            <mxPoint x="1039" y="642" as="targetPoint" />
          </mxGeometry>
        </mxCell>
        <mxCell id="n8boVN2LSgLMqEiiDCX4-45" value="" style="endArrow=none;html=1;rounded=0;exitX=0;exitY=1;exitDx=0;exitDy=0;entryX=1;entryY=0;entryDx=0;entryDy=0;" parent="1" source="Blg-O1EyzSVgvzmrywbV-39" target="Blg-O1EyzSVgvzmrywbV-36" edge="1">
          <mxGeometry relative="1" as="geometry">
            <mxPoint x="690" y="800" as="sourcePoint" />
            <mxPoint x="850" y="800" as="targetPoint" />
          </mxGeometry>
        </mxCell>
        <mxCell id="n8boVN2LSgLMqEiiDCX4-47" value="Relationship" style="shape=rhombus;perimeter=rhombusPerimeter;whiteSpace=wrap;html=1;align=center;" parent="1" vertex="1">
          <mxGeometry x="1060" y="748" width="80" height="50" as="geometry" />
        </mxCell>
        <mxCell id="n8boVN2LSgLMqEiiDCX4-48" value="" style="endArrow=none;html=1;rounded=0;exitX=0.5;exitY=1;exitDx=0;exitDy=0;entryX=0.5;entryY=0;entryDx=0;entryDy=0;" parent="1" source="Blg-O1EyzSVgvzmrywbV-36" target="n8boVN2LSgLMqEiiDCX4-47" edge="1">
          <mxGeometry relative="1" as="geometry">
            <mxPoint x="590" y="780" as="sourcePoint" />
            <mxPoint x="750" y="780" as="targetPoint" />
          </mxGeometry>
        </mxCell>
        <mxCell id="n8boVN2LSgLMqEiiDCX4-49" value="" style="endArrow=none;html=1;rounded=0;exitX=0.5;exitY=1;exitDx=0;exitDy=0;entryX=0.5;entryY=0;entryDx=0;entryDy=0;" parent="1" source="n8boVN2LSgLMqEiiDCX4-47" target="Blg-O1EyzSVgvzmrywbV-49" edge="1">
          <mxGeometry relative="1" as="geometry">
            <mxPoint x="880" y="870" as="sourcePoint" />
            <mxPoint x="760" y="879" as="targetPoint" />
          </mxGeometry>
        </mxCell>
        <mxCell id="n8boVN2LSgLMqEiiDCX4-51" value="" style="endArrow=none;html=1;rounded=0;exitX=0;exitY=0;exitDx=0;exitDy=0;entryX=1;entryY=0.5;entryDx=0;entryDy=0;" parent="1" source="Blg-O1EyzSVgvzmrywbV-49" target="Blg-O1EyzSVgvzmrywbV-52" edge="1">
          <mxGeometry relative="1" as="geometry">
            <mxPoint x="340" y="1070" as="sourcePoint" />
            <mxPoint x="500" y="1070" as="targetPoint" />
          </mxGeometry>
        </mxCell>
        <mxCell id="n8boVN2LSgLMqEiiDCX4-52" value="" style="endArrow=none;html=1;rounded=0;exitX=0;exitY=1;exitDx=0;exitDy=0;entryX=0.965;entryY=0.3;entryDx=0;entryDy=0;entryPerimeter=0;" parent="1" source="Blg-O1EyzSVgvzmrywbV-49" target="Blg-O1EyzSVgvzmrywbV-50" edge="1">
          <mxGeometry relative="1" as="geometry">
            <mxPoint x="340" y="1090" as="sourcePoint" />
            <mxPoint x="500" y="1090" as="targetPoint" />
          </mxGeometry>
        </mxCell>
        <mxCell id="n8boVN2LSgLMqEiiDCX4-53" value="" style="endArrow=none;html=1;rounded=0;exitX=0.5;exitY=1;exitDx=0;exitDy=0;entryX=0.5;entryY=0;entryDx=0;entryDy=0;" parent="1" source="Blg-O1EyzSVgvzmrywbV-49" target="Blg-O1EyzSVgvzmrywbV-51" edge="1">
          <mxGeometry relative="1" as="geometry">
            <mxPoint x="880" y="1010" as="sourcePoint" />
            <mxPoint x="1040" y="1010" as="targetPoint" />
          </mxGeometry>
        </mxCell>
        <mxCell id="n8boVN2LSgLMqEiiDCX4-56" value="Relationship" style="shape=rhombus;perimeter=rhombusPerimeter;whiteSpace=wrap;html=1;align=center;" parent="1" vertex="1">
          <mxGeometry x="1227.5" y="858" width="120" height="60" as="geometry" />
        </mxCell>
        <mxCell id="n8boVN2LSgLMqEiiDCX4-57" value="" style="endArrow=none;html=1;rounded=0;exitX=1;exitY=0.5;exitDx=0;exitDy=0;entryX=0;entryY=0.5;entryDx=0;entryDy=0;" parent="1" source="Blg-O1EyzSVgvzmrywbV-49" target="n8boVN2LSgLMqEiiDCX4-56" edge="1">
          <mxGeometry relative="1" as="geometry">
            <mxPoint x="920" y="1010" as="sourcePoint" />
            <mxPoint x="1080" y="1010" as="targetPoint" />
          </mxGeometry>
        </mxCell>
        <mxCell id="n8boVN2LSgLMqEiiDCX4-58" value="" style="endArrow=none;html=1;rounded=0;exitX=1;exitY=0.5;exitDx=0;exitDy=0;entryX=-0.001;entryY=0.387;entryDx=0;entryDy=0;entryPerimeter=0;" parent="1" source="n8boVN2LSgLMqEiiDCX4-56" target="Blg-O1EyzSVgvzmrywbV-45" edge="1">
          <mxGeometry relative="1" as="geometry">
            <mxPoint x="1050" y="1040" as="sourcePoint" />
            <mxPoint x="1210" y="1040" as="targetPoint" />
          </mxGeometry>
        </mxCell>
        <mxCell id="n8boVN2LSgLMqEiiDCX4-59" value="" style="endArrow=none;html=1;rounded=0;exitX=0.5;exitY=1;exitDx=0;exitDy=0;entryX=0.5;entryY=0;entryDx=0;entryDy=0;" parent="1" source="Blg-O1EyzSVgvzmrywbV-46" target="Blg-O1EyzSVgvzmrywbV-45" edge="1">
          <mxGeometry relative="1" as="geometry">
            <mxPoint x="1070" y="1070" as="sourcePoint" />
            <mxPoint x="1230" y="1070" as="targetPoint" />
          </mxGeometry>
        </mxCell>
        <mxCell id="n8boVN2LSgLMqEiiDCX4-60" value="" style="endArrow=none;html=1;rounded=0;exitX=0;exitY=0.5;exitDx=0;exitDy=0;entryX=1;entryY=0;entryDx=0;entryDy=0;" parent="1" source="Blg-O1EyzSVgvzmrywbV-47" target="Blg-O1EyzSVgvzmrywbV-45" edge="1">
          <mxGeometry relative="1" as="geometry">
            <mxPoint x="1140" y="1020" as="sourcePoint" />
            <mxPoint x="1300" y="1020" as="targetPoint" />
          </mxGeometry>
        </mxCell>
        <mxCell id="n8boVN2LSgLMqEiiDCX4-61" value="" style="endArrow=none;html=1;rounded=0;exitX=0.5;exitY=1;exitDx=0;exitDy=0;entryX=0.5;entryY=0;entryDx=0;entryDy=0;" parent="1" source="Blg-O1EyzSVgvzmrywbV-45" target="Blg-O1EyzSVgvzmrywbV-48" edge="1">
          <mxGeometry relative="1" as="geometry">
            <mxPoint x="1200" y="1020" as="sourcePoint" />
            <mxPoint x="1360" y="1020" as="targetPoint" />
          </mxGeometry>
        </mxCell>
        <mxCell id="n8boVN2LSgLMqEiiDCX4-63" value="Relationship" style="shape=rhombus;perimeter=rhombusPerimeter;whiteSpace=wrap;html=1;align=center;rotation=30;" parent="1" vertex="1">
          <mxGeometry x="-390" y="535" width="120" height="60" as="geometry" />
        </mxCell>
        <mxCell id="n8boVN2LSgLMqEiiDCX4-64" value="" style="endArrow=none;html=1;rounded=0;exitX=0.25;exitY=0;exitDx=0;exitDy=0;entryX=1;entryY=0.5;entryDx=0;entryDy=0;" parent="1" source="Blg-O1EyzSVgvzmrywbV-55" target="n8boVN2LSgLMqEiiDCX4-63" edge="1">
          <mxGeometry relative="1" as="geometry">
            <mxPoint x="-234.99999999999977" y="540.52" as="sourcePoint" />
            <mxPoint x="-351.1184427528458" y="599.9987914004598" as="targetPoint" />
          </mxGeometry>
        </mxCell>
        <mxCell id="n8boVN2LSgLMqEiiDCX4-65" value="" style="endArrow=none;html=1;rounded=0;exitX=0;exitY=0.5;exitDx=0;exitDy=0;entryX=1;entryY=0.5;entryDx=0;entryDy=0;" parent="1" source="n8boVN2LSgLMqEiiDCX4-63" target="Blg-O1EyzSVgvzmrywbV-103" edge="1">
          <mxGeometry relative="1" as="geometry">
            <mxPoint x="-370" y="600" as="sourcePoint" />
            <mxPoint x="-210" y="600" as="targetPoint" />
          </mxGeometry>
        </mxCell>
        <mxCell id="n8boVN2LSgLMqEiiDCX4-66" value="" style="endArrow=none;html=1;rounded=0;exitX=0.748;exitY=0.968;exitDx=0;exitDy=0;exitPerimeter=0;entryX=1;entryY=0;entryDx=0;entryDy=0;" parent="1" source="Blg-O1EyzSVgvzmrywbV-105" target="Blg-O1EyzSVgvzmrywbV-103" edge="1">
          <mxGeometry relative="1" as="geometry">
            <mxPoint x="-630" y="580" as="sourcePoint" />
            <mxPoint x="-470" y="580" as="targetPoint" />
          </mxGeometry>
        </mxCell>
        <mxCell id="n8boVN2LSgLMqEiiDCX4-67" value="" style="endArrow=none;html=1;rounded=0;exitX=0.944;exitY=0.682;exitDx=0;exitDy=0;exitPerimeter=0;entryX=0.5;entryY=0;entryDx=0;entryDy=0;" parent="1" source="Blg-O1EyzSVgvzmrywbV-104" target="Blg-O1EyzSVgvzmrywbV-103" edge="1">
          <mxGeometry relative="1" as="geometry">
            <mxPoint x="-640" y="830" as="sourcePoint" />
            <mxPoint x="-480" y="830" as="targetPoint" />
          </mxGeometry>
        </mxCell>
        <mxCell id="n8boVN2LSgLMqEiiDCX4-68" value="" style="endArrow=none;html=1;rounded=0;exitX=1.015;exitY=0.383;exitDx=0;exitDy=0;exitPerimeter=0;entryX=0;entryY=0;entryDx=0;entryDy=0;" parent="1" source="Blg-O1EyzSVgvzmrywbV-108" target="Blg-O1EyzSVgvzmrywbV-103" edge="1">
          <mxGeometry relative="1" as="geometry">
            <mxPoint x="-640" y="890" as="sourcePoint" />
            <mxPoint x="-480" y="890" as="targetPoint" />
          </mxGeometry>
        </mxCell>
        <mxCell id="n8boVN2LSgLMqEiiDCX4-69" value="" style="endArrow=none;html=1;rounded=0;exitX=0.98;exitY=0.379;exitDx=0;exitDy=0;exitPerimeter=0;entryX=0;entryY=0.25;entryDx=0;entryDy=0;" parent="1" source="Blg-O1EyzSVgvzmrywbV-106" target="Blg-O1EyzSVgvzmrywbV-103" edge="1">
          <mxGeometry relative="1" as="geometry">
            <mxPoint x="-700" y="870" as="sourcePoint" />
            <mxPoint x="-540" y="870" as="targetPoint" />
          </mxGeometry>
        </mxCell>
        <mxCell id="n8boVN2LSgLMqEiiDCX4-70" value="" style="endArrow=none;html=1;rounded=0;exitX=0;exitY=1;exitDx=0;exitDy=0;entryX=0.5;entryY=0;entryDx=0;entryDy=0;" parent="1" source="Blg-O1EyzSVgvzmrywbV-103" target="Blg-O1EyzSVgvzmrywbV-110" edge="1">
          <mxGeometry relative="1" as="geometry">
            <mxPoint x="-600" y="840" as="sourcePoint" />
            <mxPoint x="-440" y="840" as="targetPoint" />
          </mxGeometry>
        </mxCell>
        <mxCell id="n8boVN2LSgLMqEiiDCX4-71" value="" style="endArrow=none;html=1;rounded=0;exitX=0.25;exitY=1;exitDx=0;exitDy=0;entryX=0.313;entryY=0.093;entryDx=0;entryDy=0;entryPerimeter=0;" parent="1" source="Blg-O1EyzSVgvzmrywbV-103" target="Blg-O1EyzSVgvzmrywbV-107" edge="1">
          <mxGeometry relative="1" as="geometry">
            <mxPoint x="-440" y="820" as="sourcePoint" />
            <mxPoint x="-280" y="820" as="targetPoint" />
          </mxGeometry>
        </mxCell>
        <mxCell id="n8boVN2LSgLMqEiiDCX4-72" value="" style="endArrow=none;html=1;rounded=0;exitX=1;exitY=1;exitDx=0;exitDy=0;entryX=0;entryY=0;entryDx=0;entryDy=0;" parent="1" source="Blg-O1EyzSVgvzmrywbV-103" target="Blg-O1EyzSVgvzmrywbV-109" edge="1">
          <mxGeometry relative="1" as="geometry">
            <mxPoint x="-400" y="780" as="sourcePoint" />
            <mxPoint x="-240" y="780" as="targetPoint" />
          </mxGeometry>
        </mxCell>
        <mxCell id="n8boVN2LSgLMqEiiDCX4-73" value="1" style="text;html=1;align=center;verticalAlign=middle;resizable=0;points=[];autosize=1;strokeColor=none;fillColor=none;" parent="1" vertex="1">
          <mxGeometry x="-250" y="650" width="30" height="30" as="geometry" />
        </mxCell>
        <mxCell id="n8boVN2LSgLMqEiiDCX4-74" value="N" style="text;html=1;align=center;verticalAlign=middle;resizable=0;points=[];autosize=1;strokeColor=none;fillColor=none;" parent="1" vertex="1">
          <mxGeometry x="-435" y="488" width="30" height="30" as="geometry" />
        </mxCell>
        <mxCell id="n8boVN2LSgLMqEiiDCX4-76" value="" style="endArrow=none;html=1;rounded=0;exitX=0;exitY=0.5;exitDx=0;exitDy=0;entryX=0.992;entryY=0.454;entryDx=0;entryDy=0;entryPerimeter=0;" parent="1" source="Blg-O1EyzSVgvzmrywbV-55" target="Blg-O1EyzSVgvzmrywbV-58" edge="1">
          <mxGeometry relative="1" as="geometry">
            <mxPoint x="-595" y="988" as="sourcePoint" />
            <mxPoint x="-435" y="988" as="targetPoint" />
          </mxGeometry>
        </mxCell>
        <mxCell id="n8boVN2LSgLMqEiiDCX4-77" value="" style="endArrow=none;html=1;rounded=0;exitX=-0.01;exitY=0.888;exitDx=0;exitDy=0;entryX=0.951;entryY=0.294;entryDx=0;entryDy=0;entryPerimeter=0;exitPerimeter=0;" parent="1" source="Blg-O1EyzSVgvzmrywbV-55" target="Blg-O1EyzSVgvzmrywbV-57" edge="1">
          <mxGeometry relative="1" as="geometry">
            <mxPoint x="-463.32" y="1085" as="sourcePoint" />
            <mxPoint x="-309.99999999999983" y="872.04" as="targetPoint" />
          </mxGeometry>
        </mxCell>
        <mxCell id="n8boVN2LSgLMqEiiDCX4-78" value="" style="endArrow=none;html=1;rounded=0;exitX=0;exitY=1;exitDx=0;exitDy=0;entryX=0.552;entryY=-0.01;entryDx=0;entryDy=0;entryPerimeter=0;" parent="1" source="Blg-O1EyzSVgvzmrywbV-55" target="Blg-O1EyzSVgvzmrywbV-59" edge="1">
          <mxGeometry relative="1" as="geometry">
            <mxPoint x="-333.32" y="1105" as="sourcePoint" />
            <mxPoint x="-173.32" y="1105" as="targetPoint" />
          </mxGeometry>
        </mxCell>
        <mxCell id="n8boVN2LSgLMqEiiDCX4-79" value="" style="endArrow=none;html=1;rounded=0;exitX=0.895;exitY=1.015;exitDx=0;exitDy=0;entryX=0.276;entryY=0.08;entryDx=0;entryDy=0;entryPerimeter=0;exitPerimeter=0;" parent="1" source="Blg-O1EyzSVgvzmrywbV-55" target="Blg-O1EyzSVgvzmrywbV-56" edge="1">
          <mxGeometry relative="1" as="geometry">
            <mxPoint x="-283.32" y="1095" as="sourcePoint" />
            <mxPoint x="-123.32" y="1095" as="targetPoint" />
          </mxGeometry>
        </mxCell>
        <mxCell id="n8boVN2LSgLMqEiiDCX4-80" value="" style="endArrow=none;html=1;rounded=0;exitX=1;exitY=1;exitDx=0;exitDy=0;entryX=0;entryY=0;entryDx=0;entryDy=0;" parent="1" source="Blg-O1EyzSVgvzmrywbV-55" target="Blg-O1EyzSVgvzmrywbV-61" edge="1">
          <mxGeometry relative="1" as="geometry">
            <mxPoint x="-253.32" y="1125" as="sourcePoint" />
            <mxPoint x="-93.32" y="1125" as="targetPoint" />
          </mxGeometry>
        </mxCell>
        <mxCell id="n8boVN2LSgLMqEiiDCX4-81" value="" style="endArrow=none;html=1;rounded=0;exitX=1;exitY=0.25;exitDx=0;exitDy=0;entryX=0.5;entryY=1;entryDx=0;entryDy=0;" parent="1" source="Blg-O1EyzSVgvzmrywbV-55" target="Blg-O1EyzSVgvzmrywbV-60" edge="1">
          <mxGeometry relative="1" as="geometry">
            <mxPoint x="96.68" y="1015" as="sourcePoint" />
            <mxPoint x="256.68" y="1015" as="targetPoint" />
          </mxGeometry>
        </mxCell>
        <mxCell id="n8boVN2LSgLMqEiiDCX4-83" value="Relationship" style="shape=rhombus;perimeter=rhombusPerimeter;whiteSpace=wrap;html=1;align=center;" parent="1" vertex="1">
          <mxGeometry x="-225" y="490" width="120" height="60" as="geometry" />
        </mxCell>
        <mxCell id="n8boVN2LSgLMqEiiDCX4-84" value="" style="endArrow=none;html=1;rounded=0;exitX=0.57;exitY=1.006;exitDx=0;exitDy=0;entryX=0.5;entryY=0;entryDx=0;entryDy=0;exitPerimeter=0;" parent="1" source="Blg-O1EyzSVgvzmrywbV-1" target="n8boVN2LSgLMqEiiDCX4-83" edge="1">
          <mxGeometry relative="1" as="geometry">
            <mxPoint x="30" y="410" as="sourcePoint" />
            <mxPoint x="190" y="410" as="targetPoint" />
          </mxGeometry>
        </mxCell>
        <mxCell id="n8boVN2LSgLMqEiiDCX4-85" value="" style="endArrow=none;html=1;rounded=0;exitX=0.5;exitY=1;exitDx=0;exitDy=0;entryX=0.75;entryY=0;entryDx=0;entryDy=0;" parent="1" source="n8boVN2LSgLMqEiiDCX4-83" target="Blg-O1EyzSVgvzmrywbV-55" edge="1">
          <mxGeometry relative="1" as="geometry">
            <mxPoint x="-80" y="518" as="sourcePoint" />
            <mxPoint x="80" y="518" as="targetPoint" />
          </mxGeometry>
        </mxCell>
        <mxCell id="n8boVN2LSgLMqEiiDCX4-86" value="1" style="text;html=1;align=center;verticalAlign=middle;resizable=0;points=[];autosize=1;strokeColor=none;fillColor=none;" parent="1" vertex="1">
          <mxGeometry x="-155" y="370" width="30" height="30" as="geometry" />
        </mxCell>
        <mxCell id="n8boVN2LSgLMqEiiDCX4-87" value="N" style="text;html=1;align=center;verticalAlign=middle;resizable=0;points=[];autosize=1;strokeColor=none;fillColor=none;" parent="1" vertex="1">
          <mxGeometry x="-205" y="655" width="30" height="30" as="geometry" />
        </mxCell>
        <mxCell id="n8boVN2LSgLMqEiiDCX4-89" value="Relationship" style="shape=rhombus;perimeter=rhombusPerimeter;whiteSpace=wrap;html=1;align=center;rotation=0;" parent="1" vertex="1">
          <mxGeometry x="-10" y="695" width="120" height="60" as="geometry" />
        </mxCell>
        <mxCell id="n8boVN2LSgLMqEiiDCX4-90" value="" style="endArrow=none;html=1;rounded=0;exitX=0;exitY=0.5;exitDx=0;exitDy=0;entryX=1;entryY=0.25;entryDx=0;entryDy=0;" parent="1" source="n8boVN2LSgLMqEiiDCX4-89" target="Blg-O1EyzSVgvzmrywbV-55" edge="1">
          <mxGeometry relative="1" as="geometry">
            <mxPoint x="-90" y="680" as="sourcePoint" />
            <mxPoint x="70" y="680" as="targetPoint" />
          </mxGeometry>
        </mxCell>
        <mxCell id="n8boVN2LSgLMqEiiDCX4-91" value="" style="endArrow=none;html=1;rounded=0;exitX=1;exitY=0.5;exitDx=0;exitDy=0;entryX=0;entryY=0.5;entryDx=0;entryDy=0;" parent="1" source="n8boVN2LSgLMqEiiDCX4-89" target="Blg-O1EyzSVgvzmrywbV-86" edge="1">
          <mxGeometry relative="1" as="geometry">
            <mxPoint x="90" y="690" as="sourcePoint" />
            <mxPoint x="250" y="690" as="targetPoint" />
          </mxGeometry>
        </mxCell>
        <mxCell id="n8boVN2LSgLMqEiiDCX4-93" value="" style="endArrow=none;html=1;rounded=0;exitX=0.25;exitY=1;exitDx=0;exitDy=0;entryX=0.5;entryY=0;entryDx=0;entryDy=0;" parent="1" source="Blg-O1EyzSVgvzmrywbV-26" target="n8boVN2LSgLMqEiiDCX4-94" edge="1">
          <mxGeometry relative="1" as="geometry">
            <mxPoint x="420" y="490" as="sourcePoint" />
            <mxPoint x="580" y="490" as="targetPoint" />
          </mxGeometry>
        </mxCell>
        <mxCell id="n8boVN2LSgLMqEiiDCX4-94" value="Relationship" style="shape=rhombus;perimeter=rhombusPerimeter;whiteSpace=wrap;html=1;align=center;rotation=0;" parent="1" vertex="1">
          <mxGeometry x="315" y="540" width="120" height="60" as="geometry" />
        </mxCell>
        <mxCell id="n8boVN2LSgLMqEiiDCX4-95" value="" style="endArrow=none;html=1;rounded=0;exitX=0.5;exitY=1;exitDx=0;exitDy=0;entryX=0.5;entryY=0;entryDx=0;entryDy=0;" parent="1" source="n8boVN2LSgLMqEiiDCX4-94" target="Blg-O1EyzSVgvzmrywbV-86" edge="1">
          <mxGeometry relative="1" as="geometry">
            <mxPoint x="250" y="510" as="sourcePoint" />
            <mxPoint x="410" y="510" as="targetPoint" />
          </mxGeometry>
        </mxCell>
        <mxCell id="dvDT23MqoqcyZpTgtNQX-19" value="N" style="edgeLabel;html=1;align=center;verticalAlign=middle;resizable=0;points=[];" parent="n8boVN2LSgLMqEiiDCX4-95" vertex="1" connectable="0">
          <mxGeometry x="0.7642" y="4" relative="1" as="geometry">
            <mxPoint x="6" y="3" as="offset" />
          </mxGeometry>
        </mxCell>
        <mxCell id="n8boVN2LSgLMqEiiDCX4-96" value="" style="endArrow=none;html=1;rounded=0;exitX=1;exitY=1;exitDx=0;exitDy=0;entryX=0;entryY=0;entryDx=0;entryDy=0;" parent="1" source="Blg-O1EyzSVgvzmrywbV-90" target="Blg-O1EyzSVgvzmrywbV-86" edge="1">
          <mxGeometry relative="1" as="geometry">
            <mxPoint x="70" y="650" as="sourcePoint" />
            <mxPoint x="230" y="650" as="targetPoint" />
          </mxGeometry>
        </mxCell>
        <mxCell id="n8boVN2LSgLMqEiiDCX4-97" value="" style="endArrow=none;html=1;rounded=0;exitX=1;exitY=1;exitDx=0;exitDy=0;entryX=0;entryY=0;entryDx=0;entryDy=0;" parent="1" source="Blg-O1EyzSVgvzmrywbV-91" target="Blg-O1EyzSVgvzmrywbV-86" edge="1">
          <mxGeometry relative="1" as="geometry">
            <mxPoint x="100" y="620" as="sourcePoint" />
            <mxPoint x="200" y="500" as="targetPoint" />
          </mxGeometry>
        </mxCell>
        <mxCell id="n8boVN2LSgLMqEiiDCX4-98" value="" style="endArrow=none;html=1;rounded=0;exitX=1;exitY=0.5;exitDx=0;exitDy=0;entryX=0;entryY=0.5;entryDx=0;entryDy=0;" parent="1" source="Blg-O1EyzSVgvzmrywbV-86" target="Blg-O1EyzSVgvzmrywbV-88" edge="1">
          <mxGeometry relative="1" as="geometry">
            <mxPoint x="190" y="660" as="sourcePoint" />
            <mxPoint x="350" y="660" as="targetPoint" />
          </mxGeometry>
        </mxCell>
        <mxCell id="n8boVN2LSgLMqEiiDCX4-99" value="" style="endArrow=none;html=1;rounded=0;exitX=1;exitY=1;exitDx=0;exitDy=0;entryX=0;entryY=0;entryDx=0;entryDy=0;" parent="1" source="Blg-O1EyzSVgvzmrywbV-86" target="Blg-O1EyzSVgvzmrywbV-89" edge="1">
          <mxGeometry relative="1" as="geometry">
            <mxPoint x="160" y="660" as="sourcePoint" />
            <mxPoint x="320" y="660" as="targetPoint" />
          </mxGeometry>
        </mxCell>
        <mxCell id="n8boVN2LSgLMqEiiDCX4-100" value="" style="endArrow=none;html=1;rounded=0;exitX=0.75;exitY=1;exitDx=0;exitDy=0;entryX=0.5;entryY=0;entryDx=0;entryDy=0;" parent="1" source="Blg-O1EyzSVgvzmrywbV-86" target="Blg-O1EyzSVgvzmrywbV-92" edge="1">
          <mxGeometry relative="1" as="geometry">
            <mxPoint x="160" y="680" as="sourcePoint" />
            <mxPoint x="410" y="860" as="targetPoint" />
          </mxGeometry>
        </mxCell>
        <mxCell id="n8boVN2LSgLMqEiiDCX4-101" value="" style="endArrow=none;html=1;rounded=0;exitX=0.25;exitY=1;exitDx=0;exitDy=0;entryX=0.5;entryY=0;entryDx=0;entryDy=0;" parent="1" source="Blg-O1EyzSVgvzmrywbV-86" target="Blg-O1EyzSVgvzmrywbV-87" edge="1">
          <mxGeometry relative="1" as="geometry">
            <mxPoint x="70" y="670" as="sourcePoint" />
            <mxPoint x="230" y="670" as="targetPoint" />
          </mxGeometry>
        </mxCell>
        <mxCell id="n8boVN2LSgLMqEiiDCX4-107" value="Relationship" style="shape=rhombus;perimeter=rhombusPerimeter;whiteSpace=wrap;html=1;align=center;" parent="1" vertex="1">
          <mxGeometry x="-320" y="815" width="120" height="60" as="geometry" />
        </mxCell>
        <mxCell id="n8boVN2LSgLMqEiiDCX4-108" value="" style="endArrow=none;html=1;rounded=0;exitX=0.25;exitY=1;exitDx=0;exitDy=0;entryX=0.5;entryY=0;entryDx=0;entryDy=0;" parent="1" source="Blg-O1EyzSVgvzmrywbV-55" target="n8boVN2LSgLMqEiiDCX4-107" edge="1">
          <mxGeometry relative="1" as="geometry">
            <mxPoint x="-230" y="780" as="sourcePoint" />
            <mxPoint x="-70" y="780" as="targetPoint" />
          </mxGeometry>
        </mxCell>
        <mxCell id="n8boVN2LSgLMqEiiDCX4-109" value="1" style="text;html=1;align=center;verticalAlign=middle;resizable=0;points=[];autosize=1;strokeColor=none;fillColor=none;" parent="1" vertex="1">
          <mxGeometry x="-230" y="745" width="30" height="30" as="geometry" />
        </mxCell>
        <mxCell id="n8boVN2LSgLMqEiiDCX4-110" value="" style="endArrow=none;html=1;rounded=0;exitX=0.5;exitY=1;exitDx=0;exitDy=0;entryX=0.5;entryY=0;entryDx=0;entryDy=0;" parent="1" source="n8boVN2LSgLMqEiiDCX4-107" target="Blg-O1EyzSVgvzmrywbV-62" edge="1">
          <mxGeometry relative="1" as="geometry">
            <mxPoint x="-290" y="900" as="sourcePoint" />
            <mxPoint x="-130" y="900" as="targetPoint" />
          </mxGeometry>
        </mxCell>
        <mxCell id="n8boVN2LSgLMqEiiDCX4-111" value="1" style="text;html=1;align=center;verticalAlign=middle;resizable=0;points=[];autosize=1;strokeColor=none;fillColor=none;" parent="1" vertex="1">
          <mxGeometry x="-285" y="948" width="30" height="30" as="geometry" />
        </mxCell>
        <mxCell id="n8boVN2LSgLMqEiiDCX4-113" value="" style="endArrow=none;html=1;rounded=0;exitX=0;exitY=0;exitDx=0;exitDy=0;entryX=1;entryY=0;entryDx=0;entryDy=0;" parent="1" source="Blg-O1EyzSVgvzmrywbV-62" target="Blg-O1EyzSVgvzmrywbV-67" edge="1">
          <mxGeometry relative="1" as="geometry">
            <mxPoint x="-310" y="1080" as="sourcePoint" />
            <mxPoint x="-150" y="1080" as="targetPoint" />
          </mxGeometry>
        </mxCell>
        <mxCell id="n8boVN2LSgLMqEiiDCX4-114" value="" style="endArrow=none;html=1;rounded=0;exitX=0;exitY=0.25;exitDx=0;exitDy=0;entryX=0.772;entryY=0.139;entryDx=0;entryDy=0;entryPerimeter=0;" parent="1" source="Blg-O1EyzSVgvzmrywbV-62" target="Blg-O1EyzSVgvzmrywbV-64" edge="1">
          <mxGeometry relative="1" as="geometry">
            <mxPoint x="-380" y="1070" as="sourcePoint" />
            <mxPoint x="-220" y="1070" as="targetPoint" />
          </mxGeometry>
        </mxCell>
        <mxCell id="n8boVN2LSgLMqEiiDCX4-115" value="" style="endArrow=none;html=1;rounded=0;exitX=0;exitY=1;exitDx=0;exitDy=0;entryX=0.5;entryY=0;entryDx=0;entryDy=0;" parent="1" source="Blg-O1EyzSVgvzmrywbV-62" target="Blg-O1EyzSVgvzmrywbV-63" edge="1">
          <mxGeometry relative="1" as="geometry">
            <mxPoint x="-300" y="1060" as="sourcePoint" />
            <mxPoint x="-140" y="1060" as="targetPoint" />
          </mxGeometry>
        </mxCell>
        <mxCell id="n8boVN2LSgLMqEiiDCX4-116" value="" style="endArrow=none;html=1;rounded=0;exitX=0.75;exitY=1;exitDx=0;exitDy=0;entryX=0.5;entryY=0;entryDx=0;entryDy=0;" parent="1" source="Blg-O1EyzSVgvzmrywbV-62" target="Blg-O1EyzSVgvzmrywbV-65" edge="1">
          <mxGeometry relative="1" as="geometry">
            <mxPoint x="-210" y="1100" as="sourcePoint" />
            <mxPoint x="-50" y="1100" as="targetPoint" />
          </mxGeometry>
        </mxCell>
        <mxCell id="n8boVN2LSgLMqEiiDCX4-117" value="" style="endArrow=none;html=1;rounded=0;exitX=0.5;exitY=1;exitDx=0;exitDy=0;entryX=0.5;entryY=0;entryDx=0;entryDy=0;" parent="1" source="Blg-O1EyzSVgvzmrywbV-62" target="Blg-O1EyzSVgvzmrywbV-66" edge="1">
          <mxGeometry relative="1" as="geometry">
            <mxPoint x="-320" y="1100" as="sourcePoint" />
            <mxPoint x="-160" y="1100" as="targetPoint" />
          </mxGeometry>
        </mxCell>
        <mxCell id="n8boVN2LSgLMqEiiDCX4-118" value="" style="endArrow=none;html=1;rounded=0;exitX=0.25;exitY=1;exitDx=0;exitDy=0;entryX=0.5;entryY=0;entryDx=0;entryDy=0;" parent="1" source="Blg-O1EyzSVgvzmrywbV-62" target="Blg-O1EyzSVgvzmrywbV-68" edge="1">
          <mxGeometry relative="1" as="geometry">
            <mxPoint x="-330" y="1070" as="sourcePoint" />
            <mxPoint x="-170" y="1080" as="targetPoint" />
          </mxGeometry>
        </mxCell>
        <mxCell id="n8boVN2LSgLMqEiiDCX4-120" value="Relationship" style="shape=rhombus;perimeter=rhombusPerimeter;whiteSpace=wrap;html=1;align=center;" parent="1" vertex="1">
          <mxGeometry x="170" y="990" width="120" height="60" as="geometry" />
        </mxCell>
        <mxCell id="n8boVN2LSgLMqEiiDCX4-121" value="" style="endArrow=none;html=1;rounded=0;exitX=0.5;exitY=1;exitDx=0;exitDy=0;entryX=0.5;entryY=0;entryDx=0;entryDy=0;" parent="1" source="Blg-O1EyzSVgvzmrywbV-86" target="n8boVN2LSgLMqEiiDCX4-120" edge="1">
          <mxGeometry relative="1" as="geometry">
            <mxPoint x="160" y="880" as="sourcePoint" />
            <mxPoint x="320" y="880" as="targetPoint" />
          </mxGeometry>
        </mxCell>
        <mxCell id="n8boVN2LSgLMqEiiDCX4-122" value="" style="endArrow=none;html=1;rounded=0;exitX=0.5;exitY=1;exitDx=0;exitDy=0;entryX=0.5;entryY=0;entryDx=0;entryDy=0;" parent="1" source="n8boVN2LSgLMqEiiDCX4-120" target="Blg-O1EyzSVgvzmrywbV-93" edge="1">
          <mxGeometry relative="1" as="geometry">
            <mxPoint x="30" y="1040" as="sourcePoint" />
            <mxPoint x="190" y="1040" as="targetPoint" />
          </mxGeometry>
        </mxCell>
        <mxCell id="n8boVN2LSgLMqEiiDCX4-125" value="Relationship" style="shape=rhombus;perimeter=rhombusPerimeter;whiteSpace=wrap;html=1;align=center;rotation=30;" parent="1" vertex="1">
          <mxGeometry x="-115" y="1040" width="120" height="60" as="geometry" />
        </mxCell>
        <mxCell id="n8boVN2LSgLMqEiiDCX4-126" value="" style="endArrow=none;html=1;rounded=0;exitX=1;exitY=0.5;exitDx=0;exitDy=0;entryX=0;entryY=0.5;entryDx=0;entryDy=0;" parent="1" source="Blg-O1EyzSVgvzmrywbV-62" target="n8boVN2LSgLMqEiiDCX4-125" edge="1">
          <mxGeometry relative="1" as="geometry">
            <mxPoint x="-110" y="1080" as="sourcePoint" />
            <mxPoint x="50" y="1080" as="targetPoint" />
          </mxGeometry>
        </mxCell>
        <mxCell id="n8boVN2LSgLMqEiiDCX4-127" value="" style="endArrow=none;html=1;rounded=0;exitX=1;exitY=0.5;exitDx=0;exitDy=0;entryX=0;entryY=0.5;entryDx=0;entryDy=0;" parent="1" source="n8boVN2LSgLMqEiiDCX4-125" target="Blg-O1EyzSVgvzmrywbV-93" edge="1">
          <mxGeometry relative="1" as="geometry">
            <mxPoint y="1110" as="sourcePoint" />
            <mxPoint x="160" y="1110" as="targetPoint" />
          </mxGeometry>
        </mxCell>
        <mxCell id="n8boVN2LSgLMqEiiDCX4-130" value="" style="endArrow=none;html=1;rounded=0;exitX=0;exitY=0.5;exitDx=0;exitDy=0;entryX=0.75;entryY=0;entryDx=0;entryDy=0;" parent="1" source="Blg-O1EyzSVgvzmrywbV-94" target="Blg-O1EyzSVgvzmrywbV-93" edge="1">
          <mxGeometry relative="1" as="geometry">
            <mxPoint x="140" y="1100" as="sourcePoint" />
            <mxPoint x="300" y="1100" as="targetPoint" />
          </mxGeometry>
        </mxCell>
        <mxCell id="n8boVN2LSgLMqEiiDCX4-131" value="" style="endArrow=none;html=1;rounded=0;exitX=1;exitY=1;exitDx=0;exitDy=0;entryX=0.294;entryY=0.017;entryDx=0;entryDy=0;entryPerimeter=0;" parent="1" source="Blg-O1EyzSVgvzmrywbV-96" target="Blg-O1EyzSVgvzmrywbV-93" edge="1">
          <mxGeometry relative="1" as="geometry">
            <mxPoint x="100" y="1080" as="sourcePoint" />
            <mxPoint x="260" y="1080" as="targetPoint" />
            <Array as="points" />
          </mxGeometry>
        </mxCell>
        <mxCell id="n8boVN2LSgLMqEiiDCX4-132" value="" style="endArrow=none;html=1;rounded=0;exitX=0;exitY=0.75;exitDx=0;exitDy=0;entryX=1;entryY=0.5;entryDx=0;entryDy=0;" parent="1" source="Blg-O1EyzSVgvzmrywbV-93" target="Blg-O1EyzSVgvzmrywbV-101" edge="1">
          <mxGeometry relative="1" as="geometry">
            <mxPoint x="110" y="1080" as="sourcePoint" />
            <mxPoint x="270" y="1080" as="targetPoint" />
          </mxGeometry>
        </mxCell>
        <mxCell id="n8boVN2LSgLMqEiiDCX4-133" value="" style="endArrow=none;html=1;rounded=0;exitX=0;exitY=1;exitDx=0;exitDy=0;entryX=1;entryY=0.5;entryDx=0;entryDy=0;" parent="1" source="Blg-O1EyzSVgvzmrywbV-93" target="Blg-O1EyzSVgvzmrywbV-95" edge="1">
          <mxGeometry relative="1" as="geometry">
            <mxPoint x="110" y="1110" as="sourcePoint" />
            <mxPoint x="270" y="1110" as="targetPoint" />
          </mxGeometry>
        </mxCell>
        <mxCell id="n8boVN2LSgLMqEiiDCX4-134" value="" style="endArrow=none;html=1;rounded=0;exitX=0;exitY=0.5;exitDx=0;exitDy=0;entryX=1;entryY=0;entryDx=0;entryDy=0;" parent="1" source="Blg-O1EyzSVgvzmrywbV-98" target="Blg-O1EyzSVgvzmrywbV-93" edge="1">
          <mxGeometry relative="1" as="geometry">
            <mxPoint x="200" y="1120" as="sourcePoint" />
            <mxPoint x="360" y="1120" as="targetPoint" />
          </mxGeometry>
        </mxCell>
        <mxCell id="n8boVN2LSgLMqEiiDCX4-135" value="" style="endArrow=none;html=1;rounded=0;exitX=0;exitY=0;exitDx=0;exitDy=0;entryX=1;entryY=0.25;entryDx=0;entryDy=0;" parent="1" source="Blg-O1EyzSVgvzmrywbV-99" target="Blg-O1EyzSVgvzmrywbV-93" edge="1">
          <mxGeometry relative="1" as="geometry">
            <mxPoint x="160" y="1130" as="sourcePoint" />
            <mxPoint x="320" y="1130" as="targetPoint" />
          </mxGeometry>
        </mxCell>
        <mxCell id="n8boVN2LSgLMqEiiDCX4-136" value="" style="endArrow=none;html=1;rounded=0;exitX=1;exitY=1;exitDx=0;exitDy=0;entryX=0;entryY=0;entryDx=0;entryDy=0;" parent="1" source="Blg-O1EyzSVgvzmrywbV-93" target="Blg-O1EyzSVgvzmrywbV-97" edge="1">
          <mxGeometry relative="1" as="geometry">
            <mxPoint x="240" y="1100" as="sourcePoint" />
            <mxPoint x="400" y="1100" as="targetPoint" />
          </mxGeometry>
        </mxCell>
        <mxCell id="n8boVN2LSgLMqEiiDCX4-138" value="1" style="text;html=1;align=center;verticalAlign=middle;resizable=0;points=[];autosize=1;strokeColor=none;fillColor=none;" parent="1" vertex="1">
          <mxGeometry x="-230" y="988" width="30" height="30" as="geometry" />
        </mxCell>
        <mxCell id="n8boVN2LSgLMqEiiDCX4-139" value="Relationship" style="shape=rhombus;perimeter=rhombusPerimeter;whiteSpace=wrap;html=1;align=center;" parent="1" vertex="1">
          <mxGeometry x="155" y="1300" width="120" height="60" as="geometry" />
        </mxCell>
        <mxCell id="n8boVN2LSgLMqEiiDCX4-140" value="" style="endArrow=none;html=1;rounded=0;exitX=0.432;exitY=0.967;exitDx=0;exitDy=0;exitPerimeter=0;entryX=0.5;entryY=0;entryDx=0;entryDy=0;" parent="1" source="Blg-O1EyzSVgvzmrywbV-93" target="n8boVN2LSgLMqEiiDCX4-139" edge="1">
          <mxGeometry relative="1" as="geometry">
            <mxPoint x="170" y="1070" as="sourcePoint" />
            <mxPoint x="330" y="1070" as="targetPoint" />
          </mxGeometry>
        </mxCell>
        <mxCell id="n8boVN2LSgLMqEiiDCX4-141" value="" style="endArrow=none;html=1;rounded=0;exitX=0.5;exitY=1;exitDx=0;exitDy=0;entryX=0.446;entryY=-0.03;entryDx=0;entryDy=0;entryPerimeter=0;" parent="1" source="n8boVN2LSgLMqEiiDCX4-139" target="Blg-O1EyzSVgvzmrywbV-69" edge="1">
          <mxGeometry relative="1" as="geometry">
            <mxPoint x="234.99571428571423" y="1199.9971428571428" as="sourcePoint" />
            <mxPoint x="270.71" y="1257.14" as="targetPoint" />
          </mxGeometry>
        </mxCell>
        <mxCell id="n8boVN2LSgLMqEiiDCX4-142" value="" style="endArrow=none;html=1;rounded=0;exitX=1.018;exitY=0.592;exitDx=0;exitDy=0;exitPerimeter=0;entryX=0;entryY=0.25;entryDx=0;entryDy=0;" parent="1" source="Blg-O1EyzSVgvzmrywbV-74" target="Blg-O1EyzSVgvzmrywbV-69" edge="1">
          <mxGeometry relative="1" as="geometry">
            <mxPoint x="190" y="1400" as="sourcePoint" />
            <mxPoint x="350" y="1400" as="targetPoint" />
          </mxGeometry>
        </mxCell>
        <mxCell id="n8boVN2LSgLMqEiiDCX4-143" value="" style="endArrow=none;html=1;rounded=0;exitX=0;exitY=0.5;exitDx=0;exitDy=0;entryX=0.901;entryY=0.214;entryDx=0;entryDy=0;entryPerimeter=0;" parent="1" source="Blg-O1EyzSVgvzmrywbV-69" target="Blg-O1EyzSVgvzmrywbV-75" edge="1">
          <mxGeometry relative="1" as="geometry">
            <mxPoint x="170" y="1400" as="sourcePoint" />
            <mxPoint x="330" y="1400" as="targetPoint" />
          </mxGeometry>
        </mxCell>
        <mxCell id="n8boVN2LSgLMqEiiDCX4-147" value="" style="endArrow=none;html=1;rounded=0;exitX=0;exitY=1;exitDx=0;exitDy=0;entryX=0.661;entryY=0.032;entryDx=0;entryDy=0;entryPerimeter=0;" parent="1" source="Blg-O1EyzSVgvzmrywbV-69" target="Blg-O1EyzSVgvzmrywbV-70" edge="1">
          <mxGeometry relative="1" as="geometry">
            <mxPoint x="150" y="1410" as="sourcePoint" />
            <mxPoint x="310" y="1410" as="targetPoint" />
          </mxGeometry>
        </mxCell>
        <mxCell id="n8boVN2LSgLMqEiiDCX4-148" value="" style="endArrow=none;html=1;rounded=0;exitX=0;exitY=1;exitDx=0;exitDy=0;entryX=0.75;entryY=0;entryDx=0;entryDy=0;" parent="1" source="Blg-O1EyzSVgvzmrywbV-72" target="Blg-O1EyzSVgvzmrywbV-69" edge="1">
          <mxGeometry relative="1" as="geometry">
            <mxPoint x="190" y="1410" as="sourcePoint" />
            <mxPoint x="350" y="1410" as="targetPoint" />
          </mxGeometry>
        </mxCell>
        <mxCell id="n8boVN2LSgLMqEiiDCX4-149" value="" style="endArrow=none;html=1;rounded=0;exitX=1;exitY=0;exitDx=0;exitDy=0;entryX=0;entryY=0.5;entryDx=0;entryDy=0;" parent="1" source="Blg-O1EyzSVgvzmrywbV-69" target="Blg-O1EyzSVgvzmrywbV-73" edge="1">
          <mxGeometry relative="1" as="geometry">
            <mxPoint x="200" y="1410" as="sourcePoint" />
            <mxPoint x="360" y="1410" as="targetPoint" />
          </mxGeometry>
        </mxCell>
        <mxCell id="n8boVN2LSgLMqEiiDCX4-150" value="" style="endArrow=none;html=1;rounded=0;exitX=1;exitY=1;exitDx=0;exitDy=0;entryX=0;entryY=0;entryDx=0;entryDy=0;" parent="1" source="Blg-O1EyzSVgvzmrywbV-69" target="Blg-O1EyzSVgvzmrywbV-78" edge="1">
          <mxGeometry relative="1" as="geometry">
            <mxPoint x="160" y="1390" as="sourcePoint" />
            <mxPoint x="320" y="1390" as="targetPoint" />
          </mxGeometry>
        </mxCell>
        <mxCell id="n8boVN2LSgLMqEiiDCX4-152" value="Relationship" style="shape=rhombus;perimeter=rhombusPerimeter;whiteSpace=wrap;html=1;align=center;" parent="1" vertex="1">
          <mxGeometry x="125" y="1620" width="100" height="60" as="geometry" />
        </mxCell>
        <mxCell id="n8boVN2LSgLMqEiiDCX4-153" value="" style="endArrow=none;html=1;rounded=0;exitX=0.5;exitY=1;exitDx=0;exitDy=0;entryX=0.5;entryY=0;entryDx=0;entryDy=0;" parent="1" source="Blg-O1EyzSVgvzmrywbV-69" target="n8boVN2LSgLMqEiiDCX4-152" edge="1">
          <mxGeometry relative="1" as="geometry">
            <mxPoint x="300" y="1540" as="sourcePoint" />
            <mxPoint x="460" y="1540" as="targetPoint" />
          </mxGeometry>
        </mxCell>
        <mxCell id="n8boVN2LSgLMqEiiDCX4-154" value="" style="endArrow=none;html=1;rounded=0;exitX=0.5;exitY=1;exitDx=0;exitDy=0;entryX=0.5;entryY=0;entryDx=0;entryDy=0;" parent="1" source="n8boVN2LSgLMqEiiDCX4-152" target="Blg-O1EyzSVgvzmrywbV-82" edge="1">
          <mxGeometry relative="1" as="geometry">
            <mxPoint x="320" y="1660" as="sourcePoint" />
            <mxPoint x="480" y="1660" as="targetPoint" />
          </mxGeometry>
        </mxCell>
        <mxCell id="n8boVN2LSgLMqEiiDCX4-156" value="1-N" style="text;html=1;align=center;verticalAlign=middle;resizable=0;points=[];autosize=1;strokeColor=none;fillColor=none;" parent="1" vertex="1">
          <mxGeometry x="175" y="1738" width="40" height="30" as="geometry" />
        </mxCell>
        <mxCell id="n8boVN2LSgLMqEiiDCX4-157" value="" style="endArrow=none;html=1;rounded=0;exitX=1;exitY=0.5;exitDx=0;exitDy=0;entryX=0;entryY=0;entryDx=0;entryDy=0;" parent="1" source="Blg-O1EyzSVgvzmrywbV-84" target="Blg-O1EyzSVgvzmrywbV-82" edge="1">
          <mxGeometry relative="1" as="geometry">
            <mxPoint x="115" y="1910" as="sourcePoint" />
            <mxPoint x="275" y="1910" as="targetPoint" />
          </mxGeometry>
        </mxCell>
        <mxCell id="n8boVN2LSgLMqEiiDCX4-158" value="" style="endArrow=none;html=1;rounded=0;exitX=0;exitY=1;exitDx=0;exitDy=0;entryX=1;entryY=0;entryDx=0;entryDy=0;" parent="1" source="Blg-O1EyzSVgvzmrywbV-82" target="Blg-O1EyzSVgvzmrywbV-83" edge="1">
          <mxGeometry relative="1" as="geometry">
            <mxPoint x="185" y="1910" as="sourcePoint" />
            <mxPoint x="345" y="1910" as="targetPoint" />
          </mxGeometry>
        </mxCell>
        <mxCell id="n8boVN2LSgLMqEiiDCX4-159" value="" style="endArrow=none;html=1;rounded=0;exitX=0.5;exitY=1;exitDx=0;exitDy=0;entryX=0.5;entryY=0;entryDx=0;entryDy=0;" parent="1" source="Blg-O1EyzSVgvzmrywbV-82" target="Blg-O1EyzSVgvzmrywbV-85" edge="1">
          <mxGeometry relative="1" as="geometry">
            <mxPoint x="195" y="1910" as="sourcePoint" />
            <mxPoint x="180" y="1920" as="targetPoint" />
          </mxGeometry>
        </mxCell>
        <mxCell id="n8boVN2LSgLMqEiiDCX4-160" value="Relationship" style="shape=rhombus;perimeter=rhombusPerimeter;whiteSpace=wrap;html=1;align=center;rotation=0;" parent="1" vertex="1">
          <mxGeometry x="400" y="1470" width="120" height="60" as="geometry" />
        </mxCell>
        <mxCell id="n8boVN2LSgLMqEiiDCX4-161" value="" style="endArrow=none;html=1;rounded=0;exitX=1;exitY=0.5;exitDx=0;exitDy=0;entryX=0;entryY=0.5;entryDx=0;entryDy=0;" parent="1" source="Blg-O1EyzSVgvzmrywbV-69" target="n8boVN2LSgLMqEiiDCX4-160" edge="1">
          <mxGeometry relative="1" as="geometry">
            <mxPoint x="370" y="1390" as="sourcePoint" />
            <mxPoint x="530" y="1390" as="targetPoint" />
          </mxGeometry>
        </mxCell>
        <mxCell id="n8boVN2LSgLMqEiiDCX4-162" value="" style="endArrow=none;html=1;rounded=0;exitX=1;exitY=0.5;exitDx=0;exitDy=0;entryX=0;entryY=0.5;entryDx=0;entryDy=0;" parent="1" source="n8boVN2LSgLMqEiiDCX4-160" target="Blg-O1EyzSVgvzmrywbV-79" edge="1">
          <mxGeometry relative="1" as="geometry">
            <mxPoint x="530" y="1480" as="sourcePoint" />
            <mxPoint x="690" y="1480" as="targetPoint" />
          </mxGeometry>
        </mxCell>
        <mxCell id="n8boVN2LSgLMqEiiDCX4-163" value="" style="endArrow=none;html=1;rounded=0;exitX=1;exitY=0.5;exitDx=0;exitDy=0;entryX=0;entryY=0.5;entryDx=0;entryDy=0;" parent="1" source="Blg-O1EyzSVgvzmrywbV-79" target="Blg-O1EyzSVgvzmrywbV-81" edge="1">
          <mxGeometry relative="1" as="geometry">
            <mxPoint x="680" y="1520" as="sourcePoint" />
            <mxPoint x="840" y="1520" as="targetPoint" />
          </mxGeometry>
        </mxCell>
        <mxCell id="n8boVN2LSgLMqEiiDCX4-166" value="" style="endArrow=none;html=1;rounded=0;exitX=0.25;exitY=1;exitDx=0;exitDy=0;entryX=0.5;entryY=0;entryDx=0;entryDy=0;" parent="1" source="Blg-O1EyzSVgvzmrywbV-79" target="Blg-O1EyzSVgvzmrywbV-80" edge="1">
          <mxGeometry relative="1" as="geometry">
            <mxPoint x="460" y="1500" as="sourcePoint" />
            <mxPoint x="620" y="1500" as="targetPoint" />
          </mxGeometry>
        </mxCell>
        <mxCell id="GnYQ5N4WAsEQ60SQjrr0-12" value="Relationship" style="shape=rhombus;perimeter=rhombusPerimeter;whiteSpace=wrap;html=1;align=center;" parent="1" vertex="1">
          <mxGeometry x="465" y="405" width="120" height="60" as="geometry" />
        </mxCell>
        <mxCell id="GnYQ5N4WAsEQ60SQjrr0-13" value="" style="endArrow=none;html=1;rounded=0;exitX=0.5;exitY=1;exitDx=0;exitDy=0;entryX=0.25;entryY=0;entryDx=0;entryDy=0;" parent="1" source="GnYQ5N4WAsEQ60SQjrr0-12" target="Blg-O1EyzSVgvzmrywbV-111" edge="1">
          <mxGeometry relative="1" as="geometry">
            <mxPoint x="440" y="570" as="sourcePoint" />
            <mxPoint x="600" y="570" as="targetPoint" />
          </mxGeometry>
        </mxCell>
        <mxCell id="GnYQ5N4WAsEQ60SQjrr0-14" value="" style="endArrow=none;html=1;rounded=0;exitX=1;exitY=1;exitDx=0;exitDy=0;entryX=0.5;entryY=0;entryDx=0;entryDy=0;" parent="1" source="Blg-O1EyzSVgvzmrywbV-26" target="GnYQ5N4WAsEQ60SQjrr0-12" edge="1">
          <mxGeometry relative="1" as="geometry">
            <mxPoint x="390" y="480" as="sourcePoint" />
            <mxPoint x="550" y="480" as="targetPoint" />
          </mxGeometry>
        </mxCell>
        <mxCell id="GnYQ5N4WAsEQ60SQjrr0-15" value="Relationship" style="shape=rhombus;perimeter=rhombusPerimeter;whiteSpace=wrap;html=1;align=center;" parent="1" vertex="1">
          <mxGeometry x="470" y="620" width="120" height="60" as="geometry" />
        </mxCell>
        <mxCell id="GnYQ5N4WAsEQ60SQjrr0-16" value="" style="endArrow=none;html=1;rounded=0;exitX=0;exitY=1;exitDx=0;exitDy=0;entryX=1;entryY=0;entryDx=0;entryDy=0;" parent="1" source="GnYQ5N4WAsEQ60SQjrr0-15" target="Blg-O1EyzSVgvzmrywbV-86" edge="1">
          <mxGeometry relative="1" as="geometry">
            <mxPoint x="390" y="720" as="sourcePoint" />
            <mxPoint x="550" y="720" as="targetPoint" />
          </mxGeometry>
        </mxCell>
        <mxCell id="GnYQ5N4WAsEQ60SQjrr0-17" value="" style="endArrow=none;html=1;rounded=0;entryX=0.5;entryY=0;entryDx=0;entryDy=0;exitX=0.5;exitY=1;exitDx=0;exitDy=0;" parent="1" source="Blg-O1EyzSVgvzmrywbV-111" target="GnYQ5N4WAsEQ60SQjrr0-15" edge="1">
          <mxGeometry relative="1" as="geometry">
            <mxPoint x="550" y="570" as="sourcePoint" />
            <mxPoint x="550" y="660" as="targetPoint" />
          </mxGeometry>
        </mxCell>
        <mxCell id="GnYQ5N4WAsEQ60SQjrr0-18" value="" style="endArrow=none;html=1;rounded=0;exitX=0;exitY=0.5;exitDx=0;exitDy=0;entryX=1;entryY=0;entryDx=0;entryDy=0;" parent="1" source="Blg-O1EyzSVgvzmrywbV-116" target="Blg-O1EyzSVgvzmrywbV-111" edge="1">
          <mxGeometry relative="1" as="geometry">
            <mxPoint x="610" y="580" as="sourcePoint" />
            <mxPoint x="770" y="580" as="targetPoint" />
          </mxGeometry>
        </mxCell>
        <mxCell id="GnYQ5N4WAsEQ60SQjrr0-20" value="" style="endArrow=none;html=1;rounded=0;exitX=1;exitY=0.5;exitDx=0;exitDy=0;entryX=0;entryY=0;entryDx=0;entryDy=0;" parent="1" source="Blg-O1EyzSVgvzmrywbV-111" target="GnYQ5N4WAsEQ60SQjrr0-26" edge="1">
          <mxGeometry relative="1" as="geometry">
            <mxPoint x="620" y="590" as="sourcePoint" />
            <mxPoint x="849.9999999999995" y="565" as="targetPoint" />
          </mxGeometry>
        </mxCell>
        <mxCell id="GnYQ5N4WAsEQ60SQjrr0-22" value="" style="endArrow=none;html=1;rounded=0;exitX=1;exitY=1;exitDx=0;exitDy=0;entryX=0;entryY=0;entryDx=0;entryDy=0;" parent="1" source="Blg-O1EyzSVgvzmrywbV-111" target="Blg-O1EyzSVgvzmrywbV-115" edge="1">
          <mxGeometry relative="1" as="geometry">
            <mxPoint x="580" y="620" as="sourcePoint" />
            <mxPoint x="740" y="620" as="targetPoint" />
          </mxGeometry>
        </mxCell>
        <mxCell id="GnYQ5N4WAsEQ60SQjrr0-24" value="ORDERID" style="ellipse;whiteSpace=wrap;html=1;align=center;" parent="1" vertex="1">
          <mxGeometry x="680" y="378" width="140" height="80" as="geometry" />
        </mxCell>
        <mxCell id="GnYQ5N4WAsEQ60SQjrr0-25" value="" style="endArrow=none;html=1;rounded=0;exitX=0;exitY=1;exitDx=0;exitDy=0;entryX=0.75;entryY=0;entryDx=0;entryDy=0;" parent="1" source="GnYQ5N4WAsEQ60SQjrr0-24" target="Blg-O1EyzSVgvzmrywbV-111" edge="1">
          <mxGeometry relative="1" as="geometry">
            <mxPoint x="560" y="470" as="sourcePoint" />
            <mxPoint x="720" y="470" as="targetPoint" />
          </mxGeometry>
        </mxCell>
        <mxCell id="GnYQ5N4WAsEQ60SQjrr0-26" value="SHIPMENT_ID" style="ellipse;whiteSpace=wrap;html=1;align=center;fontStyle=4;" parent="1" vertex="1">
          <mxGeometry x="802.5" y="590" width="125" height="65" as="geometry" />
        </mxCell>
        <mxCell id="dvDT23MqoqcyZpTgtNQX-1" value="N" style="text;html=1;align=center;verticalAlign=middle;resizable=0;points=[];autosize=1;strokeColor=none;fillColor=none;" parent="1" vertex="1">
          <mxGeometry x="315" y="318" width="30" height="30" as="geometry" />
        </mxCell>
        <mxCell id="dvDT23MqoqcyZpTgtNQX-3" value="1" style="text;html=1;align=center;verticalAlign=middle;resizable=0;points=[];autosize=1;strokeColor=none;fillColor=none;" parent="1" vertex="1">
          <mxGeometry x="135" y="1168" width="30" height="30" as="geometry" />
        </mxCell>
        <mxCell id="dvDT23MqoqcyZpTgtNQX-4" value="1" style="text;html=1;align=center;verticalAlign=middle;resizable=0;points=[];autosize=1;strokeColor=none;fillColor=none;" parent="1" vertex="1">
          <mxGeometry x="205" y="1448" width="30" height="30" as="geometry" />
        </mxCell>
        <mxCell id="dvDT23MqoqcyZpTgtNQX-6" value="1" style="text;html=1;align=center;verticalAlign=middle;resizable=0;points=[];autosize=1;strokeColor=none;fillColor=none;" parent="1" vertex="1">
          <mxGeometry x="215" y="1228" width="30" height="30" as="geometry" />
        </mxCell>
        <mxCell id="dvDT23MqoqcyZpTgtNQX-7" value="1" style="text;html=1;align=center;verticalAlign=middle;resizable=0;points=[];autosize=1;strokeColor=none;fillColor=none;" parent="1" vertex="1">
          <mxGeometry x="205" y="1528" width="30" height="30" as="geometry" />
        </mxCell>
        <mxCell id="dvDT23MqoqcyZpTgtNQX-8" value="1" style="text;html=1;align=center;verticalAlign=middle;resizable=0;points=[];autosize=1;strokeColor=none;fillColor=none;" parent="1" vertex="1">
          <mxGeometry x="605" y="1468" width="30" height="30" as="geometry" />
        </mxCell>
        <mxCell id="dvDT23MqoqcyZpTgtNQX-9" value="N" style="text;html=1;align=center;verticalAlign=middle;resizable=0;points=[];autosize=1;strokeColor=none;fillColor=none;" parent="1" vertex="1">
          <mxGeometry x="275" y="1478" width="30" height="30" as="geometry" />
        </mxCell>
        <mxCell id="dvDT23MqoqcyZpTgtNQX-10" value="1" style="text;html=1;align=center;verticalAlign=middle;resizable=0;points=[];autosize=1;strokeColor=none;fillColor=none;" parent="1" vertex="1">
          <mxGeometry x="1095" y="678" width="30" height="30" as="geometry" />
        </mxCell>
        <mxCell id="dvDT23MqoqcyZpTgtNQX-11" value="N" style="text;html=1;align=center;verticalAlign=middle;resizable=0;points=[];autosize=1;strokeColor=none;fillColor=none;" parent="1" vertex="1">
          <mxGeometry x="1095" y="838" width="30" height="30" as="geometry" />
        </mxCell>
        <mxCell id="dvDT23MqoqcyZpTgtNQX-12" value="1" style="text;html=1;align=center;verticalAlign=middle;resizable=0;points=[];autosize=1;strokeColor=none;fillColor=none;" parent="1" vertex="1">
          <mxGeometry x="1095" y="328" width="30" height="30" as="geometry" />
        </mxCell>
        <mxCell id="dvDT23MqoqcyZpTgtNQX-13" value="N" style="text;html=1;align=center;verticalAlign=middle;resizable=0;points=[];autosize=1;strokeColor=none;fillColor=none;" parent="1" vertex="1">
          <mxGeometry x="1095" y="598" width="30" height="30" as="geometry" />
        </mxCell>
        <mxCell id="dvDT23MqoqcyZpTgtNQX-14" value="1" style="text;html=1;align=center;verticalAlign=middle;resizable=0;points=[];autosize=1;strokeColor=none;fillColor=none;" parent="1" vertex="1">
          <mxGeometry x="485" y="468" width="30" height="30" as="geometry" />
        </mxCell>
        <mxCell id="dvDT23MqoqcyZpTgtNQX-15" value="N" style="text;html=1;align=center;verticalAlign=middle;resizable=0;points=[];autosize=1;strokeColor=none;fillColor=none;" parent="1" vertex="1">
          <mxGeometry x="445" y="378" width="30" height="30" as="geometry" />
        </mxCell>
        <mxCell id="dvDT23MqoqcyZpTgtNQX-16" value="1" style="text;html=1;align=center;verticalAlign=middle;resizable=0;points=[];autosize=1;strokeColor=none;fillColor=none;" parent="1" vertex="1">
          <mxGeometry x="375" y="368" width="30" height="30" as="geometry" />
        </mxCell>
        <mxCell id="dvDT23MqoqcyZpTgtNQX-20" value="1" style="text;html=1;align=center;verticalAlign=middle;resizable=0;points=[];autosize=1;strokeColor=none;fillColor=none;" parent="1" vertex="1">
          <mxGeometry x="-155" y="698" width="30" height="30" as="geometry" />
        </mxCell>
        <mxCell id="dvDT23MqoqcyZpTgtNQX-21" value="1" style="text;html=1;align=center;verticalAlign=middle;resizable=0;points=[];autosize=1;strokeColor=none;fillColor=none;" parent="1" vertex="1">
          <mxGeometry x="285" y="758" width="30" height="30" as="geometry" />
        </mxCell>
        <mxCell id="dvDT23MqoqcyZpTgtNQX-22" value="1" style="text;html=1;align=center;verticalAlign=middle;resizable=0;points=[];autosize=1;strokeColor=none;fillColor=none;" parent="1" vertex="1">
          <mxGeometry x="345" y="788" width="30" height="30" as="geometry" />
        </mxCell>
        <mxCell id="dvDT23MqoqcyZpTgtNQX-23" value="1" style="text;html=1;align=center;verticalAlign=middle;resizable=0;points=[];autosize=1;strokeColor=none;fillColor=none;" parent="1" vertex="1">
          <mxGeometry x="225" y="1138" width="30" height="30" as="geometry" />
        </mxCell>
        <mxCell id="dvDT23MqoqcyZpTgtNQX-25" value="1" style="text;html=1;align=center;verticalAlign=middle;resizable=0;points=[];autosize=1;strokeColor=none;fillColor=none;" parent="1" vertex="1">
          <mxGeometry x="1155" y="868" width="30" height="30" as="geometry" />
        </mxCell>
        <mxCell id="dvDT23MqoqcyZpTgtNQX-26" value="N" style="text;html=1;align=center;verticalAlign=middle;resizable=0;points=[];autosize=1;strokeColor=none;fillColor=none;" parent="1" vertex="1">
          <mxGeometry x="1415" y="868" width="30" height="30" as="geometry" />
        </mxCell>
        <mxCell id="dvDT23MqoqcyZpTgtNQX-27" value="1" style="text;html=1;align=center;verticalAlign=middle;resizable=0;points=[];autosize=1;strokeColor=none;fillColor=none;" parent="1" vertex="1">
          <mxGeometry x="465" y="318" width="30" height="30" as="geometry" />
        </mxCell>
        <mxCell id="dvDT23MqoqcyZpTgtNQX-28" value="N" style="text;html=1;align=center;verticalAlign=middle;resizable=0;points=[];autosize=1;strokeColor=none;fillColor=none;" parent="1" vertex="1">
          <mxGeometry x="1015" y="278" width="30" height="30" as="geometry" />
        </mxCell>
        <mxCell id="sjeFl8Dtc7_AN1iQ-wLp-4" value="Relationship" style="shape=rhombus;perimeter=rhombusPerimeter;whiteSpace=wrap;html=1;align=center;rotation=45;" parent="1" vertex="1">
          <mxGeometry x="-155" y="1203" width="120" height="60" as="geometry" />
        </mxCell>
        <mxCell id="sjeFl8Dtc7_AN1iQ-wLp-5" value="" style="endArrow=none;html=1;rounded=0;exitX=1;exitY=0.5;exitDx=0;exitDy=0;entryX=0.25;entryY=0;entryDx=0;entryDy=0;" parent="1" source="sjeFl8Dtc7_AN1iQ-wLp-4" target="Blg-O1EyzSVgvzmrywbV-69" edge="1">
          <mxGeometry relative="1" as="geometry">
            <mxPoint x="-60" y="1360" as="sourcePoint" />
            <mxPoint x="100" y="1360" as="targetPoint" />
          </mxGeometry>
        </mxCell>
        <mxCell id="sjeFl8Dtc7_AN1iQ-wLp-6" value="" style="endArrow=none;html=1;rounded=0;exitX=1;exitY=1;exitDx=0;exitDy=0;entryX=0;entryY=0.5;entryDx=0;entryDy=0;" parent="1" source="Blg-O1EyzSVgvzmrywbV-62" target="sjeFl8Dtc7_AN1iQ-wLp-4" edge="1">
          <mxGeometry relative="1" as="geometry">
            <mxPoint x="-280" y="1150" as="sourcePoint" />
            <mxPoint x="-120" y="1150" as="targetPoint" />
          </mxGeometry>
        </mxCell>
      </root>
    </mxGraphModel>
  </diagram>
</mxfile>
